<svg width="348" height="326" viewBox="0 0 348 326" fill="none" xmlns="http://www.w3.org/2000/svg">
<path d="M41.6616 280.813C42.5114 282.274 44.0274 283.141 45.7162 283.135L326.139 282.08C327.828 282.074 329.337 281.195 330.176 279.729C331.015 278.263 331.008 276.517 330.158 275.057L189.034 32.731C188.184 31.2714 186.668 30.4032 184.979 30.4096C183.291 30.416 181.781 31.2949 180.942 32.7609L41.6437 276.141C40.8047 277.608 40.8108 279.354 41.6616 280.813ZM45.3592 278.268L184.657 34.888C184.806 34.6279 185.185 34.6271 185.335 34.8854L326.459 277.211C326.535 277.34 326.536 277.473 326.46 277.602C326.386 277.732 326.272 277.799 326.122 277.799L45.6993 278.853C45.5496 278.854 45.4355 278.788 45.3602 278.659C45.285 278.53 45.2848 278.398 45.3592 278.268Z" fill="#008738"/>
<path d="M87.7338 226.855L87.7393 228.333L283.761 227.605L283.755 226.127L87.7338 226.855Z" fill="#008738"/>
<path d="M87.7562 232.955L87.7617 234.433L283.783 233.705L283.778 232.227L87.7562 232.955Z" fill="#008738"/>
<path d="M87.7103 220.754L87.7158 222.233L283.737 221.505L283.732 220.026L87.7103 220.754Z" fill="#008738"/>
<path d="M180.98 114.406L145.49 126.507L145.473 121.934L167.839 107.78L168.442 107.398L168.277 106.704C168.025 105.642 167.875 104.419 167.871 103.11L167.871 103.11C167.866 101.609 168.046 100.223 168.357 99.0673C168.418 98.8404 168.622 98.6833 168.857 98.6824L168.857 98.6824L172.066 98.6705L172.067 98.6704C172.301 98.6693 172.506 98.8242 172.569 99.051L172.569 99.0512C172.857 100.093 173.034 101.334 173.07 102.68L173.118 104.439L174.605 103.498L181.178 99.3381L181.664 99.03L181.642 98.4544L181.598 97.3091L181.597 97.2936L181.596 97.2782L181.596 97.2776L181.596 97.2751L181.595 97.2643L181.592 97.22C181.589 97.1805 181.585 97.1212 181.581 97.0433C181.571 96.8873 181.557 96.6566 181.54 96.3594C181.507 95.765 181.464 94.905 181.423 93.846C181.342 91.7271 181.272 88.8161 181.317 85.645C181.362 82.4714 181.523 79.0518 181.898 75.9117C182.276 72.7539 182.864 69.954 183.73 67.9781C184.269 66.7485 185.964 66.7419 186.513 67.9681C187.393 69.9375 188.002 72.7329 188.403 75.8877C188.802 79.0248 188.988 82.4431 189.057 85.6162C189.125 88.7868 189.077 91.6982 189.012 93.8176C188.98 94.8768 188.943 95.7371 188.914 96.3317C188.9 96.629 188.887 96.8598 188.879 97.0158C188.874 97.0938 188.871 97.1531 188.868 97.1926L188.866 97.237L188.865 97.2478L188.865 97.2503L188.865 97.2508L189.863 97.313L188.865 97.2509L188.864 97.2661L188.864 97.2814L188.827 98.4247L188.809 99.0007L189.298 99.3053L195.903 103.416L197.398 104.346L197.431 102.587C197.457 101.24 197.625 99.999 197.905 98.9557C197.966 98.729 198.17 98.5719 198.405 98.5711L198.405 98.5711L201.614 98.5591L201.615 98.5591C201.849 98.5579 202.054 98.7129 202.117 98.9396L202.117 98.9402C202.437 100.094 202.627 101.478 202.633 102.979C202.638 104.288 202.498 105.512 202.254 106.576L202.095 107.271L202.701 107.648L225.172 121.635L225.19 126.208L189.609 114.373L188.336 113.949L188.294 115.29L187.59 137.579C187.59 137.579 187.59 137.579 187.59 137.579C187.548 138.888 187.474 140.193 187.371 141.492L187.326 142.062L187.794 142.39L198.988 150.236L198.995 152.053L187.779 147.997L186.656 147.59L186.453 148.767C186.199 150.244 185.908 151.707 185.572 153.149C185.564 153.183 185.554 153.201 185.549 153.209C185.544 153.217 185.538 153.222 185.532 153.227C185.518 153.237 185.487 153.251 185.443 153.251C185.399 153.252 185.368 153.238 185.353 153.227C185.347 153.223 185.342 153.217 185.336 153.209C185.331 153.202 185.321 153.184 185.313 153.149C184.965 151.709 184.663 150.249 184.397 148.773L184.185 147.598L183.066 148.013L171.878 152.155L171.871 150.337L183.007 142.409L183.472 142.077L183.423 141.507C183.31 140.209 183.227 138.904 183.175 137.596C183.175 137.596 183.175 137.596 183.175 137.596L182.302 115.313L182.25 113.973L180.98 114.406Z" stroke="#FFBB00" stroke-width="2"/>
<path d="M105.702 206.059C107.564 206.053 109.066 204.538 109.059 202.677C109.053 200.815 107.538 199.313 105.677 199.319C103.815 199.327 102.313 200.84 102.319 202.702C102.327 204.563 103.841 206.067 105.702 206.059Z" fill="#008738"/>
<path d="M256.702 205.059C258.564 205.053 260.066 203.538 260.06 201.677C260.053 199.815 258.539 198.313 256.677 198.319C254.816 198.327 253.313 199.841 253.32 201.702C253.326 203.563 254.84 205.066 256.702 205.059Z" fill="#008738"/>
<path d="M233.786 290.975C233.142 290.819 232.162 291.394 231.697 291.156C231.317 290.961 231.057 290.556 230.65 290.428C229.761 290.147 229.112 291.29 228.978 292.212C228.844 293.134 228.645 294.307 227.737 294.513C227.17 293.935 227.506 292.849 226.95 292.26C226.301 291.573 225.157 292.158 224.471 292.807C223.784 293.457 222.852 294.223 222.015 293.783C221.812 293.196 221.61 292.61 221.406 292.023C220.691 293.267 218.932 293.218 217.499 293.307C216.275 293.383 214.798 294.136 214.669 295.205L225.962 295.162C225.946 295.149 225.943 295.124 225.924 295.114C226.275 294.743 226.454 294.216 226.401 293.708C226.397 293.667 226.39 293.621 226.36 293.591C226.322 293.554 226.262 293.554 226.209 293.557C225.801 293.577 225.378 293.626 224.973 293.607C225.099 293.425 225.598 292.564 225.853 292.559C226.088 292.556 226.046 292.769 226.17 292.916C226.341 293.117 226.67 293.173 226.8 293.4C226.847 293.484 226.855 293.585 226.862 293.68C226.896 294.172 226.929 294.665 226.964 295.158L233.989 295.131C234.247 294.748 234.38 294.235 234.528 293.783C234.759 293.082 235.404 292.311 236.089 292.585C235.254 292.254 234.842 291.229 233.786 290.975Z" fill="#008738"/>
<path d="M215.595 292.107C215.032 291.111 213.627 290.703 212.618 291.245C212.723 290.246 211.289 289.825 210.345 290.165C209.4 290.505 208.522 291.223 207.524 291.108C207.05 291.053 206.608 290.808 206.131 290.785C205.655 290.761 205.093 291.121 205.186 291.589C204.311 290.587 202.688 289.569 201.852 290.603C202.734 291.498 203.614 292.394 204.496 293.29C203.875 293.655 203.45 294.335 203.394 295.053C204.123 294.965 204.918 294.922 205.554 295.241L210.578 295.222C210.668 294.526 210.819 293.838 211.059 293.179C211.077 293.129 211.098 293.075 211.145 293.047C211.198 293.016 211.265 293.03 211.326 293.041C211.633 293.096 212.04 292.93 212.017 292.618C212.01 292.534 211.971 292.454 211.962 292.368C211.94 292.149 212.135 291.955 212.348 291.895C212.561 291.834 212.788 291.871 213.008 291.895C213.229 291.919 213.465 291.926 213.657 291.818C213.736 291.774 213.806 291.71 213.893 291.687C214.163 291.613 214.416 291.93 214.596 292.083C214.288 292.19 213.861 292.104 213.525 292.141C213.403 292.155 213.275 292.177 213.181 292.255C212.995 292.413 213.034 292.707 213.106 292.94C213.227 293.332 213.397 293.723 213.382 294.134C213.38 294.19 213.373 294.251 213.337 294.294C213.29 294.35 213.21 294.36 213.138 294.371C212.636 294.45 212.194 294.777 211.94 295.215L214.348 295.206C213.923 294.44 213.761 293.528 213.941 292.67C214.534 292.685 215.132 292.481 215.595 292.107Z" fill="#008738"/>
<path d="M211.29 294.934C211.215 294.942 211.144 294.978 211.079 295.019C210.987 295.075 210.905 295.147 210.826 295.221L211.701 295.218C211.604 295.052 211.471 294.915 211.29 294.934Z" fill="#008738"/>
<path d="M229.995 77.818L228.595 75.4146C228.577 75.5822 228.571 75.7517 228.593 75.9194C228.696 76.7362 229.26 77.4535 229.995 77.818Z" fill="#008738"/>
<path d="M201.789 288.405L198.019 288.419C197.78 288.546 197.541 288.674 197.302 288.801C197.164 288.876 197.02 288.95 196.864 288.965C196.708 288.98 196.534 288.919 196.461 288.78C196.444 288.749 196.434 288.714 196.437 288.678C196.443 288.619 196.489 288.573 196.528 288.528C196.554 288.497 196.565 288.457 196.588 288.424L191.241 288.444C191.272 288.518 191.296 288.596 191.327 288.67C191.435 288.93 191.633 289.15 191.878 289.288C191.78 289.446 191.681 289.605 191.583 289.763C191.554 289.811 191.522 289.86 191.469 289.878C191.36 289.917 191.26 289.795 191.145 289.774C191.057 289.758 190.97 289.804 190.892 289.849C190.624 290.001 190.356 290.154 190.089 290.306C190.075 289.685 190.03 289.066 189.964 288.447L189.652 288.448C189.509 288.505 189.367 288.562 189.225 288.619C189.194 288.631 189.159 288.644 189.13 288.627C189.102 288.613 189.092 288.58 189.085 288.549C189.078 288.524 189.071 288.489 189.062 288.45L182.776 288.474C182.758 289.288 183.198 290.109 184.004 290.211C184.391 290.26 184.784 290.147 185.172 290.183C186.433 290.297 186.936 292.305 185.877 293C187.381 293.562 189.081 293.585 190.6 293.064C190.173 293.717 190.152 294.586 190.471 295.295L199.572 295.26C199.52 295.028 199.45 294.801 199.346 294.586C197.432 294.423 195.518 294.26 193.604 294.096C193.387 293.537 193.168 292.978 192.95 292.419C194.357 292.847 195.857 292.962 197.313 292.752C197.47 291.859 197.625 290.966 197.782 290.073C198.559 291.692 201.359 291.633 202.068 289.983C201.741 289.525 201.673 288.95 201.789 288.405Z" fill="#008738"/>
<path d="M249.738 294.995C249.877 294.105 248.568 293.588 247.801 294.059C247.409 294.299 247.144 294.667 246.947 295.084L253.165 295.061C252.906 294.893 252.647 294.723 252.383 294.578C251.495 294.087 250.097 294.044 249.738 294.995Z" fill="#008738"/>
<path d="M252.565 116.573C252.543 116.571 252.521 116.579 252.498 116.575C252.533 116.594 252.565 116.616 252.6 116.634L252.565 116.573Z" fill="#008738"/>
<path d="M63.4993 219.312C64.6867 218.574 65.7472 217.633 66.6219 216.544C67.1397 216.615 67.1999 217.377 67.6173 217.691C67.8368 217.856 68.0713 217.859 68.302 217.774L179.521 23.4541C180.648 21.486 182.674 20.3061 184.942 20.297C187.209 20.2889 189.244 21.4538 190.385 23.4128L221.715 77.2095C221.881 77.1395 222.044 77.0589 222.214 76.9937C222.163 76.6791 221.989 76.4 221.829 76.1247C221.668 75.8494 221.513 75.5554 221.502 75.2369C221.491 74.9183 221.672 74.5705 221.981 74.4944C222.256 74.4266 222.562 74.5789 222.819 74.4646C223.165 74.3114 223.166 73.829 223.11 73.4546C223.517 73.1667 224.331 73.8308 224.631 74.0742C224.284 74.5289 223.832 74.8356 223.569 75.3825C223.492 75.5419 223.426 75.7144 223.435 75.8914C223.443 76.0615 223.518 76.2198 223.591 76.3733C223.761 76.7291 223.931 77.0858 224.102 77.4416C223.654 77.4412 223.185 77.4471 222.797 77.6689C222.572 77.798 222.404 78.0278 222.334 78.273L223.211 79.779C223.716 79.3415 224.3 78.9936 224.936 78.7842C223.831 77.2246 224.509 74.7255 226.252 73.9398C225.492 73.222 224.662 72.5786 223.777 72.023C224.332 71.6227 224.908 71.1961 225.2 70.578C225.311 70.3437 225.343 70.0751 225.333 69.8129L221.568 63.347C221.564 63.3514 221.559 63.358 221.556 63.3622C221.54 63.3348 221.536 63.302 221.525 63.2729L221.08 62.5075C221.028 62.5097 220.976 62.5129 220.926 62.527C220.684 62.5944 220.443 62.6608 220.201 62.7282C220.104 62.2997 219.784 61.9289 219.373 61.773C218.963 61.6161 218.476 61.679 218.119 61.9339C218.394 61.5113 218.769 61.131 219.244 60.9639C219.547 60.8572 219.889 60.866 220.188 60.9768L196.304 19.9656C193.917 15.8661 189.66 13.4294 184.917 13.4474C180.173 13.4654 175.934 15.9343 173.577 20.0508L113.438 125.125C113.596 125.283 113.758 125.438 113.919 125.588C113.423 125.963 112.951 126.367 112.489 126.783L108.59 133.596C108.677 133.689 108.774 133.776 108.873 133.858C108.723 133.935 108.558 133.953 108.389 133.946L106.551 137.158C106.87 137.278 107.214 137.281 107.522 137.1C107.337 137.676 106.829 137.778 106.211 137.752L102.493 144.248C103.117 145.206 103.852 146.092 104.705 146.853C103.112 148.36 101.519 149.867 99.9269 151.376C100.365 150.309 100.482 149.149 100.338 148.015L95.0796 157.202C95.5288 157.542 95.9382 157.907 96.0908 158.427C94.0571 159.505 92.6819 161.728 92.626 164.029C92.427 163.597 92.1593 163.203 91.8519 162.843L83.7165 177.058C83.9562 177.233 84.1844 177.414 84.4366 177.303C84.5463 177.255 84.626 177.158 84.6998 177.062C85.6532 175.835 86.4499 174.407 87.7853 173.612C88.0928 176.029 87.3946 178.469 87.5018 180.903C86.8641 180.698 86.1746 180.757 85.5124 180.658C84.8502 180.558 84.1397 180.218 83.9469 179.577C82.9348 180.47 81.8687 181.535 81.8229 182.883C81.802 183.508 82.0094 184.133 81.9165 184.75C81.3776 184.528 81.0726 183.972 80.7582 183.482C80.6393 183.298 80.4958 183.119 80.339 182.959L74.7027 192.807C74.8274 192.848 74.9547 192.884 75.0661 192.953C75.109 192.98 75.1513 193.011 75.1758 193.055C75.21 193.115 75.2063 193.188 75.2042 193.258C75.1807 194.177 75.7737 195.08 76.6263 195.425C76.0034 195.818 75.4316 196.289 74.9265 196.825C74.6607 196.018 74.1795 195.308 73.6574 194.631L70.7631 199.688C70.7763 199.819 70.7866 199.952 70.8276 200.08C70.75 200.048 70.6722 200.015 70.5946 199.982L65.1431 209.507C65.1578 210.136 65.0998 210.781 64.9941 211.361C64.782 211.199 64.5709 211.039 64.3597 210.877L61.5031 215.869C61.9188 215.785 62.3285 215.67 62.7147 215.493C62.4977 216.807 62.7842 218.193 63.4993 219.312ZM218.474 64.5374C218.544 64.3787 218.772 64.4 218.939 64.4456C219.388 64.5665 219.908 64.6731 220.36 64.5142C220.66 64.4088 220.93 63.9456 221.258 63.9962C221.955 64.1032 221.737 65.3954 221.585 65.7855C221.394 65.5483 221.332 65.06 220.961 65.0089C220.867 64.9961 220.772 65.0217 220.682 65.0498C220.388 65.1406 220.1 65.2569 219.824 65.395C219.834 65.2634 219.695 65.1588 219.564 65.1589C219.432 65.158 219.312 65.2324 219.207 65.3112C219.102 65.391 219 65.4807 218.874 65.5204C218.845 65.5304 218.811 65.5358 218.784 65.5224C218.759 65.5099 218.744 65.4832 218.731 65.4584C218.617 65.2346 218.531 64.996 218.474 64.7504C218.459 64.6796 218.446 64.6036 218.474 64.5374ZM106.301 138.734C106.398 138.551 106.945 138.604 107.151 138.523C107.48 138.394 107.765 138.148 107.937 137.838C108.154 137.444 108.189 136.979 108.32 136.549C108.332 136.507 108.349 136.461 108.384 136.434C108.431 136.399 108.497 136.406 108.553 136.422C108.816 136.496 109.007 136.716 109.205 136.905C109.404 137.093 109.661 137.267 109.93 137.217C110.125 137.18 110.369 137.043 110.488 137.203C110.586 137.336 110.461 137.517 110.34 137.631C110.155 137.804 109.964 137.975 109.831 138.19C109.697 138.405 109.63 138.676 109.717 138.912C109.587 138.776 109.424 138.671 109.246 138.609C109.198 138.593 109.146 138.58 109.097 138.596C109.026 138.619 108.99 138.696 108.962 138.766C108.852 139.036 108.74 139.315 108.74 139.607C108.739 139.899 108.874 140.211 109.14 140.332C108.605 140.077 107.996 139.98 107.409 140.057C106.995 140.112 106.943 139.987 106.751 139.661C106.647 139.481 106.183 138.962 106.301 138.734ZM104.319 145.663C103.978 145.202 103.481 144.582 103.362 144.022C103.84 143.973 104.621 144.859 104.986 145.147C105.032 145.184 105.083 145.221 105.142 145.223C105.204 145.225 105.259 145.186 105.309 145.149C105.867 144.733 106.426 144.318 106.985 143.903C107.33 144.912 107.814 145.874 108.416 146.753C108.071 146.785 107.725 146.816 107.379 146.848C107.274 146.858 107.164 146.867 107.07 146.822C106.928 146.757 106.862 146.597 106.776 146.468C106.655 146.288 106.475 146.146 106.271 146.072C106.199 146.046 106.116 146.029 106.049 146.067C105.986 146.102 105.957 146.176 105.931 146.243C105.826 146.527 105.721 146.812 105.615 147.096C105.634 147.047 104.433 145.817 104.319 145.663ZM82.4941 185.851C82.5194 185.623 82.5635 185.38 82.7229 185.215C82.793 185.143 82.883 185.089 82.9443 185.008C83.0091 184.922 83.0364 184.814 83.0519 184.708C83.1156 184.27 83.0052 183.81 82.75 183.45C82.7078 183.39 82.6579 183.323 82.6677 183.25C82.6774 183.167 82.7575 183.113 82.8307 183.072C83.0268 182.963 83.2314 182.868 83.4415 182.789C83.3555 182.542 83.2273 182.306 83.1421 182.067C83.4875 182.125 84.7164 183.396 84.9707 183.286C84.6181 183.438 84.2983 183.667 84.0414 183.952C83.988 184.01 83.9363 184.076 83.9251 184.154C83.9123 184.247 83.9604 184.337 84.0076 184.416C84.1831 184.713 84.3756 185 84.584 185.274C84.1783 185.468 84.1784 186.061 84.3738 186.466C84.5691 186.871 84.8952 187.227 84.9549 187.672C84.9597 187.71 84.9618 187.751 84.9418 187.782C84.9122 187.827 84.8507 187.835 84.7966 187.838C84.1232 187.877 83.4509 187.917 82.7774 187.957C82.7265 187.96 82.6704 187.961 82.6302 187.931C82.5868 187.899 82.5739 187.841 82.5636 187.788C82.4474 187.151 82.424 186.496 82.4941 185.851ZM66.2277 210.292C66.5362 210.171 66.9719 210.277 67.2865 210.307C66.7893 210.58 66.4206 210.963 66.8142 211.511C67.1285 211.95 67.5813 212.277 67.8824 212.724C67.8989 212.748 67.9156 212.775 67.9156 212.804C67.9161 212.899 67.7795 212.91 67.6849 212.9C67.3159 212.857 66.9306 213.014 66.695 213.301C66.3321 212.898 66.0642 212.412 65.9174 211.89C65.8281 211.57 65.7511 211.192 65.427 211.027C65.801 210.968 65.8631 210.434 66.2277 210.292Z" fill="#008738"/>
<path d="M237.082 291.114C237.037 291.375 237.01 291.66 237.134 291.894C237.324 292.251 237.787 292.359 238.191 292.349C239.616 292.314 240.939 291.187 241.201 289.785C242.167 289.745 243.177 289.712 244.054 290.121C244.93 290.529 245.612 291.53 245.324 292.454C246.142 291.472 246.959 290.49 247.777 289.508C248.533 290.45 249.66 291.498 250.772 291.028C251.875 290.563 252.014 288.951 252.906 288.213L238.354 288.268C237.719 289.104 237.263 290.068 237.082 291.114Z" fill="#008738"/>
<path d="M344.847 275.033L253.377 117.967C253.362 117.993 253.356 118.024 253.337 118.048C253.057 118.399 252.373 118.42 252.336 118.868C252.326 118.987 252.375 119.104 252.423 119.214C253.052 120.635 253.93 122.014 253.997 123.566C251.722 122.69 249.906 120.918 247.712 119.858C248.195 119.394 248.47 118.759 248.872 118.223C249.274 117.687 249.909 117.223 250.565 117.358C250.26 116.044 249.826 114.6 248.662 113.919C248.122 113.605 247.473 113.491 246.973 113.116C247.425 112.747 248.059 112.743 248.64 112.698C249.138 112.659 249.677 112.522 249.996 112.164L248.704 109.942C248.693 109.94 248.668 109.944 248.664 109.94C248.636 109.911 248.636 109.877 248.645 109.842L248.192 109.064C247.8 108.891 247.409 108.719 247.017 108.547C247.211 108.34 247.358 108.096 247.48 107.841L244.249 102.291C244.091 102.316 243.932 102.379 243.808 102.474C243.521 102.694 243.315 103.013 243.001 103.192C242.958 103.218 242.91 103.24 242.859 103.241C242.79 103.243 242.727 103.204 242.667 103.17C241.869 102.714 240.793 102.807 240.085 103.394C240.034 102.659 239.89 101.932 239.658 101.234C240.738 101.426 241.844 101.227 242.924 101.028C242.974 101.019 243.03 101.007 243.061 100.965C243.084 100.935 243.088 100.895 243.087 100.858C243.084 100.658 242.971 100.48 242.907 100.29C242.872 100.184 242.863 100.061 242.889 99.9534L241.018 96.7419C240.841 96.9376 240.686 97.1531 240.574 97.3934C240.062 96.8227 239.492 96.2195 238.737 96.081C239.168 95.7354 239.598 95.3897 240.029 95.0441L235.412 87.1149C234.178 87.3229 232.662 86.4648 231.573 85.594C232.352 85.2416 233.13 84.8882 233.909 84.5359L230.338 78.4053C229.575 79.3099 229.09 80.4459 229.016 81.6272C227.963 80.8181 226.606 80.4123 225.282 80.5119C225.368 81.9072 225.693 83.2867 226.238 84.5737C226.195 84.6333 226.142 84.6759 226.084 84.7098L243.05 113.844C243.281 113.347 243.512 112.852 243.742 112.355C243.764 112.309 243.789 112.259 243.835 112.237C243.884 112.214 243.941 112.231 243.993 112.247C244.61 112.446 245.198 112.737 245.732 113.104C245.921 113.234 246.114 113.389 246.183 113.607C246.214 113.703 246.218 113.807 246.26 113.9C246.305 113.998 246.387 114.073 246.474 114.138C246.829 114.402 247.286 114.523 247.725 114.469C247.798 114.459 247.88 114.448 247.94 114.49C248.008 114.539 248.018 114.634 248.019 114.718C248.023 114.943 248.009 115.168 247.979 115.39C248.236 115.43 248.506 115.43 248.757 115.469C248.541 115.746 246.841 116.224 246.816 116.5C246.85 116.118 246.8 115.728 246.671 115.366C246.645 115.291 246.612 115.214 246.548 115.168C246.472 115.113 246.371 115.113 246.277 115.117C245.933 115.131 245.59 115.165 245.248 115.218C245.271 114.77 244.748 114.488 244.299 114.468C244.009 114.455 243.711 114.494 243.424 114.484L270.465 160.917C270.595 160.875 270.727 160.834 270.855 160.791C270.916 161.186 270.994 161.577 271.077 161.968L275.34 169.288C275.476 169.254 275.611 169.209 275.743 169.156C275.739 169.342 275.664 169.51 275.562 169.669L277.419 172.857C277.747 172.627 277.973 172.294 277.956 171.883C278.42 172.365 278.188 172.92 277.804 173.518L279.825 176.989C279.846 176.985 279.867 176.983 279.888 176.978C279.891 177.018 279.886 177.059 279.889 177.099L281.423 179.734C282.713 179.671 283.993 179.428 285.205 178.987C285.777 181.105 286.349 183.221 286.92 185.339C286.019 184.24 284.767 183.502 283.403 183.135L288.987 192.723C289.753 192.39 290.515 191.893 291.309 192.062C291.293 194.364 292.597 196.628 294.597 197.77C293.77 197.718 292.941 197.881 292.181 198.206L338.929 278.478C340.07 280.438 340.08 282.782 338.953 284.751C337.826 286.719 335.8 287.899 333.533 287.908L253.401 288.209C254.827 289.891 257.134 290.788 259.318 290.47C257.845 291.481 256.969 293.266 256.981 295.045L333.558 294.758C338.302 294.74 342.541 292.272 344.898 288.154C347.253 284.039 347.235 279.133 344.847 275.033ZM231.414 88.1194C231.41 87.552 231.247 87.0457 230.577 87.1329C230.042 87.2016 229.539 87.445 229.003 87.4977C228.974 87.5006 228.942 87.5028 228.917 87.4893C228.833 87.4454 228.888 87.3182 228.942 87.2405C229.153 86.9359 229.199 86.5224 229.058 86.1787C229.584 86.0505 230.141 86.0451 230.669 86.164C230.993 86.237 231.362 86.3478 231.661 86.141C231.537 86.4981 231.977 86.8068 231.93 87.1944C231.889 87.5231 231.589 87.8566 231.414 88.1194ZM280.505 173.385C280.357 173.775 280.222 173.762 279.844 173.776C279.636 173.784 278.959 173.946 278.815 173.733C278.7 173.562 279.007 173.106 279.033 172.886C279.075 172.534 278.994 172.168 278.802 171.869C278.559 171.492 278.165 171.241 277.85 170.921C277.819 170.889 277.786 170.855 277.78 170.81C277.771 170.753 277.809 170.698 277.849 170.655C278.039 170.459 278.323 170.396 278.582 170.31C278.842 170.225 279.118 170.081 279.2 169.82C279.26 169.63 279.256 169.352 279.453 169.323C279.617 169.298 279.716 169.495 279.759 169.656C279.824 169.9 279.883 170.15 280.01 170.368C280.136 170.587 280.342 170.775 280.593 170.811C280.411 170.861 280.24 170.955 280.102 171.083C280.066 171.117 280.029 171.156 280.02 171.207C280.008 171.28 280.058 171.349 280.106 171.406C280.292 171.631 280.484 171.862 280.741 172.001C280.997 172.14 281.337 172.168 281.569 171.992C281.089 172.342 280.715 172.831 280.505 173.385ZM286.468 176.632C286.427 176.728 286.383 176.829 286.298 176.892C286.174 176.985 286.002 176.968 285.847 176.982C285.63 177.002 285.421 177.093 285.259 177.239C285.202 177.29 285.148 177.356 285.149 177.432C285.15 177.505 285.2 177.566 285.248 177.62C285.448 177.847 285.648 178.076 285.849 178.303C285.815 178.264 284.163 178.737 283.974 178.765C283.406 178.847 282.624 178.99 282.073 178.829C282.257 178.384 283.408 178.118 283.835 177.932C283.889 177.908 283.945 177.881 283.975 177.831C284.007 177.778 283.999 177.71 283.99 177.648C283.889 176.96 283.789 176.27 283.688 175.582C284.739 175.757 285.816 175.788 286.876 175.673C286.741 175.993 286.605 176.312 286.468 176.632Z" fill="#008738"/>
<path d="M183.523 292.677C183.962 292.184 183.618 291.335 183.032 291.032C182.445 290.729 181.743 290.807 181.087 290.893C181.27 290.131 180.846 289.267 180.13 288.947C179.415 288.627 178.488 288.886 178.042 289.532C178.223 289.177 178.174 288.816 177.998 288.494L177.065 288.498C177.232 288.559 177.388 288.634 177.481 288.773C177.737 289.155 177.634 289.966 177.656 290.407C177.497 290.349 177.388 290.208 177.26 290.097C177.133 289.986 176.948 289.901 176.799 289.981C176.734 290.017 176.688 290.078 176.644 290.137C176.495 290.339 176.346 290.541 176.197 290.742C175.856 290.465 175.376 290.37 174.955 290.5C174.536 290.629 174.19 290.977 174.066 291.399C174.022 290.897 174.084 290.366 174.355 289.942C174.627 289.516 175.141 289.225 175.636 289.321C175.678 289.329 175.725 289.339 175.762 289.318C175.787 289.304 175.804 289.277 175.819 289.251C175.897 289.12 175.974 288.988 176.052 288.857C176.116 288.749 176.176 288.626 176.21 288.503L38.3655 289.021C36.098 289.029 34.0639 287.865 32.9228 285.905C31.7817 283.945 31.7729 281.6 32.8993 279.632L64.0084 225.278C63.2591 224.79 62.5342 224.265 61.8558 223.684C61.6029 223.878 61.4395 224.163 61.2728 224.435C61.1071 224.707 60.9218 224.984 60.6464 225.144C60.371 225.304 59.9796 225.31 59.7649 225.074C59.5751 224.864 59.564 224.523 59.3407 224.35C59.0422 224.119 58.6168 224.347 58.3138 224.573C57.8676 224.352 58.0667 223.32 58.1382 222.941C58.7029 223.03 59.1866 223.283 59.7938 223.256C59.971 223.248 60.1534 223.224 60.3061 223.132C60.452 223.044 60.5565 222.903 60.6563 222.765C60.8886 222.446 61.122 222.128 61.3543 221.808C61.5666 222.202 61.7937 222.613 62.1732 222.849C62.5526 223.086 63.1307 223.067 63.3713 222.69C63.6834 223.198 63.9956 223.705 64.3067 224.212C64.3583 224.296 64.4101 224.382 64.4287 224.478C64.4333 224.503 64.4207 224.528 64.4212 224.553L65.989 221.814C64.5908 221.902 63.1597 221.401 62.1405 220.437C61.4198 221.89 59.5001 222.52 58.006 221.972L56.8069 224.067C56.7856 224.267 56.7511 224.464 56.737 224.664C56.6663 224.63 56.5937 224.597 56.5229 224.563L52.7066 231.231C52.7305 231.249 52.7508 231.271 52.7746 231.287C52.6544 231.342 52.6284 231.513 52.6903 231.63C52.7522 231.746 52.8738 231.816 52.9938 231.87C53.1138 231.925 53.2412 231.972 53.3358 232.063C53.3579 232.084 53.3797 232.111 53.3797 232.141C53.3805 232.169 53.364 232.195 53.3482 232.218C53.2051 232.424 53.0362 232.614 52.8467 232.78C52.7922 232.827 52.7317 232.876 52.6589 232.881C52.4864 232.895 52.397 232.684 52.3569 232.515C52.322 232.367 52.2785 232.214 52.2281 232.062L26.9511 276.226C24.5948 280.343 24.613 285.249 27.0006 289.348C29.3872 293.448 33.6453 295.884 38.3882 295.866L184.881 295.316C185.001 294.829 185.075 294.331 184.965 293.846C184.819 293.182 184.198 292.566 183.523 292.677ZM178.198 292.068C178.116 292.115 178.058 292.195 178.003 292.273C177.828 292.526 177.672 292.794 177.54 293.073C177.467 292.963 177.293 292.966 177.189 293.047C177.084 293.127 177.036 293.259 177.002 293.387C176.968 293.514 176.942 293.647 176.869 293.757C176.851 293.783 176.829 293.808 176.799 293.814C176.772 293.82 176.744 293.808 176.718 293.796C176.49 293.689 176.276 293.555 176.08 293.397C176.024 293.351 175.967 293.3 175.948 293.229C175.905 293.062 176.097 292.938 176.257 292.871C176.685 292.69 177.16 292.454 177.419 292.05C177.59 291.781 177.518 291.251 177.807 291.089C178.422 290.744 179.046 291.898 179.167 292.298C178.872 292.226 178.522 291.88 178.198 292.068Z" fill="#008738"/>
<path d="M66.1584 221.52L67.3233 219.484C66.7312 219.332 66.1379 219.178 65.5457 219.025C65.3443 219.894 65.596 220.831 66.1584 221.52Z" fill="#008738"/>
<path d="M150.776 267.89C149.064 267.903 147.702 267.549 146.69 266.829C145.679 266.109 144.943 265.087 144.484 263.764C144.045 262.419 143.819 260.836 143.805 259.017L143.739 250.284C143.725 248.422 143.926 246.815 144.344 245.463C144.762 244.112 145.503 243.078 146.568 242.364C147.654 241.628 149.15 241.253 151.055 241.238C152.831 241.224 154.246 241.513 155.299 242.105C156.353 242.696 157.109 243.557 157.567 244.688C158.046 245.798 158.292 247.155 158.304 248.76L158.314 250.109L153.788 250.143L153.776 248.666C153.77 247.832 153.7 247.115 153.567 246.517C153.456 245.918 153.217 245.47 152.851 245.174C152.506 244.855 151.937 244.699 151.145 244.705C150.31 244.711 149.702 244.919 149.32 245.329C148.959 245.738 148.728 246.275 148.626 246.94C148.545 247.604 148.508 248.332 148.514 249.124L148.597 260.008C148.604 260.907 148.685 261.688 148.84 262.35C148.995 263.012 149.277 263.524 149.686 263.885C150.095 264.224 150.675 264.391 151.424 264.385C152.194 264.379 152.782 264.182 153.185 263.794C153.589 263.405 153.863 262.868 154.008 262.182C154.174 261.496 154.253 260.682 154.246 259.74L154.227 257.3L151.434 257.321L151.411 254.335L158.475 254.282L158.575 267.477L155.525 267.5L155.153 264.935C154.817 265.793 154.298 266.504 153.596 267.066C152.915 267.606 151.975 267.881 150.776 267.89ZM162.19 267.45L161.992 241.444L166.326 241.41L166.525 267.417L162.19 267.45ZM175.612 267.636C174.263 267.646 173.148 267.409 172.267 266.923C171.385 266.416 170.716 265.683 170.259 264.723C169.824 263.763 169.601 262.598 169.591 261.228L169.543 255C169.533 253.63 169.738 252.462 170.158 251.495C170.601 250.529 171.259 249.796 172.132 249.297C173.006 248.776 174.117 248.511 175.466 248.501C176.814 248.491 177.929 248.739 178.81 249.246C179.713 249.731 180.382 250.454 180.818 251.414C181.275 252.374 181.508 253.539 181.519 254.908L181.566 261.137C181.577 262.507 181.361 263.675 180.919 264.642C180.498 265.608 179.84 266.352 178.945 266.872C178.071 267.371 176.96 267.626 175.612 267.636ZM175.621 264.618C176.113 264.614 176.476 264.472 176.709 264.192C176.942 263.912 177.089 263.536 177.15 263.065C177.21 262.572 177.238 262.037 177.234 261.459L177.182 254.653C177.178 254.075 177.142 253.55 177.074 253.08C177.006 252.61 176.853 252.236 176.616 251.96C176.378 251.662 176.013 251.515 175.521 251.519C175.028 251.522 174.666 251.675 174.433 251.976C174.199 252.256 174.042 252.632 173.959 253.104C173.899 253.575 173.871 254.1 173.875 254.678L173.927 261.484C173.932 262.062 173.968 262.597 174.036 263.089C174.125 263.559 174.288 263.932 174.526 264.209C174.763 264.485 175.128 264.622 175.621 264.618ZM192.598 267.507C191.913 267.512 191.27 267.356 190.668 267.04C190.066 266.723 189.507 266.331 188.99 265.865L189 267.245L184.634 267.278L184.435 241.272L188.802 241.239L188.869 250.1C189.401 249.583 189.975 249.171 190.594 248.867C191.233 248.541 191.917 248.375 192.645 248.37C193.48 248.363 194.166 248.551 194.704 248.932C195.242 249.313 195.663 249.824 195.968 250.464C196.272 251.082 196.481 251.755 196.594 252.482C196.727 253.187 196.797 253.871 196.802 254.535L196.85 260.828C196.859 262.048 196.718 263.162 196.426 264.17C196.155 265.178 195.701 265.985 195.064 266.589C194.447 267.193 193.626 267.499 192.598 267.507ZM190.905 264.469C191.376 264.466 191.718 264.313 191.929 264.012C192.162 263.689 192.309 263.271 192.369 262.756C192.451 262.221 192.489 261.642 192.485 261.022L192.434 254.376C192.429 253.798 192.383 253.284 192.294 252.835C192.204 252.365 192.041 251.992 191.804 251.715C191.587 251.439 191.244 251.302 190.773 251.306C190.43 251.309 190.099 251.397 189.78 251.57C189.46 251.723 189.161 251.896 188.885 252.091L188.974 263.81C189.254 264 189.555 264.158 189.877 264.284C190.22 264.41 190.563 264.472 190.905 264.469ZM203.5 267.423C202.666 267.43 201.947 267.221 201.344 266.798C200.742 266.353 200.277 265.8 199.951 265.139C199.625 264.456 199.459 263.751 199.453 263.023C199.444 261.868 199.651 260.892 200.073 260.097C200.495 259.302 201.057 258.634 201.76 258.093C202.462 257.553 203.261 257.086 204.157 256.694C205.053 256.281 205.96 255.91 206.878 255.582L206.865 253.977C206.861 253.441 206.815 252.992 206.727 252.629C206.66 252.266 206.519 251.988 206.303 251.797C206.109 251.606 205.798 251.512 205.37 251.516C205.006 251.518 204.707 251.606 204.473 251.779C204.26 251.952 204.101 252.2 203.997 252.521C203.913 252.822 203.863 253.175 203.844 253.582L203.789 254.706L199.646 254.577C199.694 252.437 200.206 250.859 201.183 249.846C202.181 248.811 203.697 248.285 205.73 248.27C207.592 248.256 208.945 248.759 209.787 249.78C210.651 250.801 211.09 252.189 211.104 253.944L211.169 262.517C211.174 263.202 211.19 263.822 211.215 264.379C211.262 264.935 211.309 265.437 211.355 265.887C211.423 266.336 211.479 266.731 211.525 267.073L207.608 267.103C207.54 266.676 207.451 266.195 207.34 265.66C207.25 265.104 207.183 264.698 207.138 264.442C206.93 265.192 206.528 265.881 205.934 266.506C205.339 267.11 204.528 267.416 203.5 267.423ZM205.081 264.168C205.359 264.166 205.616 264.1 205.85 263.97C206.106 263.818 206.329 263.645 206.52 263.451C206.712 263.257 206.849 263.085 206.934 262.934L206.894 257.765C206.426 258.047 205.978 258.329 205.552 258.61C205.148 258.891 204.786 259.205 204.468 259.55C204.171 259.873 203.938 260.228 203.77 260.614C203.623 261.001 203.551 261.451 203.555 261.965C203.56 262.65 203.693 263.194 203.953 263.599C204.234 263.982 204.61 264.172 205.081 264.168ZM214.708 267.049L214.51 241.043L218.844 241.01L219.042 267.016L214.708 267.049Z" fill="#008738"/>
<path d="M156.368 182.21L156.295 172.7C156.243 172.781 156.136 172.862 155.977 172.943C155.817 173.024 155.639 173.097 155.444 173.161C155.257 173.225 155.084 173.284 154.924 173.338C154.773 173.384 154.676 173.412 154.631 173.421L154.625 172.633C154.75 172.596 154.896 172.542 155.065 172.469C155.233 172.397 155.402 172.311 155.57 172.211C155.739 172.103 155.903 171.982 156.062 171.847C156.23 171.712 156.371 171.56 156.486 171.39L157.274 171.384L157.356 182.202L156.368 182.21ZM162.475 182.297C161.834 182.302 161.326 182.168 160.95 181.894C160.573 181.621 160.303 181.245 160.139 180.765C159.976 180.286 159.891 179.739 159.887 179.124L159.851 174.423C159.846 173.8 159.922 173.251 160.079 172.778C160.244 172.296 160.513 171.92 160.885 171.65C161.266 171.38 161.768 171.243 162.391 171.238C163.032 171.233 163.541 171.363 163.917 171.627C164.302 171.891 164.576 172.263 164.74 172.743C164.913 173.213 165.002 173.76 165.006 174.383L165.042 179.085C165.047 179.708 164.967 180.261 164.801 180.743C164.644 181.225 164.38 181.606 164.008 181.885C163.636 182.154 163.125 182.292 162.475 182.297ZM162.469 181.522C162.888 181.519 163.208 181.41 163.429 181.194C163.659 180.979 163.817 180.697 163.903 180.349C163.998 179.992 164.044 179.6 164.041 179.173L164.004 174.324C164.001 173.888 163.949 173.497 163.848 173.15C163.756 172.795 163.598 172.515 163.374 172.312C163.15 172.109 162.824 172.009 162.397 172.012C161.987 172.016 161.668 172.12 161.438 172.327C161.217 172.533 161.058 172.815 160.963 173.172C160.877 173.52 160.835 173.912 160.839 174.348L160.876 179.197C160.879 179.624 160.926 180.016 161.018 180.371C161.119 180.718 161.286 180.997 161.519 181.209C161.752 181.421 162.069 181.525 162.469 181.522ZM166.472 178.166L166.466 177.391L169.298 177.369L169.304 178.144L166.472 178.166ZM173.341 182.214C172.699 182.219 172.191 182.085 171.815 181.812C171.439 181.538 171.169 181.162 171.005 180.682C170.841 180.203 170.756 179.656 170.752 179.041L170.716 174.34C170.711 173.717 170.787 173.168 170.944 172.695C171.109 172.213 171.378 171.837 171.75 171.567C172.131 171.297 172.633 171.16 173.256 171.155C173.897 171.15 174.406 171.28 174.782 171.544C175.167 171.808 175.441 172.18 175.605 172.66C175.778 173.13 175.867 173.677 175.871 174.301L175.907 179.002C175.912 179.625 175.832 180.178 175.666 180.66C175.51 181.142 175.245 181.523 174.873 181.802C174.502 182.072 173.991 182.209 173.341 182.214ZM173.335 181.439C173.753 181.436 174.073 181.327 174.294 181.111C174.524 180.896 174.682 180.614 174.768 180.266C174.863 179.909 174.909 179.517 174.906 179.09L174.869 174.241C174.866 173.805 174.814 173.414 174.713 173.067C174.622 172.712 174.464 172.432 174.239 172.229C174.015 172.026 173.689 171.926 173.262 171.93C172.852 171.933 172.533 172.038 172.303 172.244C172.082 172.451 171.924 172.732 171.828 173.089C171.742 173.437 171.7 173.829 171.704 174.266L171.741 179.114C171.744 179.541 171.791 179.933 171.883 180.288C171.984 180.635 172.151 180.914 172.384 181.126C172.617 181.338 172.934 181.442 173.335 181.439ZM180.174 182.162C179.577 182.166 179.095 182.037 178.728 181.772C178.361 181.499 178.091 181.109 177.918 180.603C177.745 180.088 177.655 179.483 177.65 178.788L177.617 174.474C177.612 173.806 177.688 173.223 177.844 172.723C178.001 172.214 178.26 171.82 178.623 171.541C178.986 171.254 179.47 171.107 180.076 171.103C180.619 171.099 181.07 171.189 181.427 171.373C181.785 171.557 182.054 171.836 182.235 172.208C182.425 172.572 182.522 173.03 182.526 173.582C182.526 173.6 182.526 173.64 182.527 173.702C182.536 173.756 182.541 173.791 182.541 173.809L181.566 173.816C181.561 173.122 181.446 172.628 181.221 172.336C181.005 172.044 180.639 171.9 180.122 171.904C179.819 171.906 179.553 171.984 179.322 172.137C179.092 172.281 178.911 172.523 178.78 172.863C178.649 173.202 178.586 173.661 178.591 174.24L178.606 176.283C178.765 176.131 178.996 175.986 179.297 175.851C179.608 175.715 179.955 175.645 180.338 175.642C180.934 175.638 181.403 175.745 181.743 175.966C182.083 176.186 182.326 176.531 182.472 177.002C182.618 177.473 182.694 178.087 182.7 178.843C182.705 179.502 182.624 180.082 182.459 180.582C182.294 181.082 182.025 181.471 181.653 181.75C181.29 182.02 180.797 182.157 180.174 182.162ZM180.167 181.347C180.524 181.344 180.812 181.267 181.034 181.113C181.264 180.951 181.436 180.701 181.549 180.362C181.662 180.022 181.717 179.581 181.713 179.038C181.708 178.45 181.669 177.961 181.595 177.57C181.529 177.178 181.385 176.885 181.16 176.691C180.945 176.497 180.602 176.402 180.13 176.405C179.916 176.407 179.712 176.444 179.516 176.517C179.321 176.581 179.143 176.662 178.984 176.761C178.824 176.852 178.7 176.942 178.612 177.031L178.626 178.901C178.631 179.48 178.688 179.951 178.797 180.316C178.907 180.671 179.073 180.933 179.297 181.1C179.53 181.267 179.82 181.35 180.167 181.347ZM184.003 178.032L183.997 177.257L186.828 177.236L186.834 178.01L184.003 178.032ZM188.078 181.968L188.073 181.247L190.951 176.763C191.162 176.432 191.36 176.115 191.544 175.811C191.729 175.498 191.878 175.171 191.991 174.832C192.113 174.493 192.173 174.109 192.169 173.682C192.165 173.103 192.041 172.65 191.798 172.322C191.564 171.995 191.202 171.833 190.713 171.836C190.276 171.84 189.939 171.94 189.7 172.138C189.461 172.336 189.294 172.609 189.198 172.957C189.112 173.296 189.07 173.679 189.074 174.106L189.075 174.347L188.1 174.354L188.098 174.087C188.093 173.419 188.178 172.862 188.353 172.415C188.527 171.96 188.801 171.615 189.173 171.381C189.554 171.146 190.052 171.027 190.666 171.022C191.485 171.016 192.102 171.256 192.515 171.743C192.928 172.22 193.138 172.891 193.145 173.755C193.148 174.191 193.089 174.592 192.967 174.958C192.845 175.324 192.688 175.677 192.494 176.017C192.301 176.348 192.099 176.683 191.888 177.023L189.221 181.131L192.974 181.103L192.98 181.931L188.078 181.968ZM197.353 182.031C196.712 182.036 196.204 181.902 195.828 181.628C195.452 181.355 195.182 180.979 195.018 180.499C194.854 180.02 194.769 179.473 194.765 178.858L194.729 174.157C194.724 173.533 194.8 172.985 194.957 172.512C195.122 172.03 195.391 171.654 195.763 171.384C196.144 171.114 196.646 170.976 197.269 170.972C197.91 170.967 198.419 171.096 198.795 171.361C199.18 171.625 199.454 171.997 199.618 172.476C199.791 172.947 199.88 173.494 199.884 174.117L199.92 178.819C199.925 179.442 199.845 179.995 199.679 180.477C199.523 180.959 199.258 181.34 198.886 181.618C198.514 181.888 198.003 182.026 197.353 182.031ZM197.348 181.256C197.766 181.253 198.086 181.144 198.307 180.928C198.537 180.713 198.695 180.431 198.781 180.083C198.876 179.726 198.922 179.334 198.919 178.907L198.882 174.058C198.879 173.622 198.827 173.231 198.726 172.884C198.634 172.528 198.477 172.249 198.252 172.046C198.028 171.843 197.702 171.743 197.275 171.746C196.865 171.749 196.546 171.854 196.316 172.061C196.095 172.267 195.936 172.549 195.841 172.906C195.755 173.254 195.713 173.646 195.717 174.082L195.754 178.931C195.757 179.358 195.804 179.75 195.896 180.105C195.997 180.452 196.164 180.731 196.397 180.943C196.63 181.155 196.947 181.259 197.348 181.256ZM201.461 181.866L201.455 181.145L204.333 176.661C204.544 176.33 204.742 176.013 204.927 175.708C205.112 175.395 205.26 175.069 205.374 174.73C205.496 174.391 205.555 174.007 205.552 173.58C205.547 173.001 205.424 172.548 205.181 172.22C204.947 171.893 204.585 171.731 204.095 171.734C203.659 171.738 203.321 171.838 203.082 172.036C202.843 172.234 202.676 172.507 202.581 172.855C202.494 173.194 202.453 173.577 202.456 174.004L202.458 174.245L201.483 174.252L201.481 173.985C201.476 173.317 201.561 172.76 201.735 172.313C201.91 171.858 202.183 171.513 202.556 171.279C202.937 171.044 203.434 170.925 204.049 170.92C204.868 170.914 205.484 171.154 205.898 171.64C206.311 172.118 206.521 172.789 206.527 173.653C206.531 174.089 206.471 174.49 206.35 174.856C206.228 175.222 206.07 175.575 205.877 175.915C205.683 176.246 205.481 176.581 205.27 176.921L202.603 181.029L206.356 181L206.363 181.829L201.461 181.866ZM211.216 181.791L211.192 178.626L207.933 178.651L207.925 177.662L210.946 170.974L212.095 170.965L212.147 177.737L213.389 177.728L213.395 178.609L212.153 178.619L212.177 181.784L211.216 181.791ZM208.914 177.762L211.185 177.744L211.143 172.268L208.914 177.762Z" fill="#008738"/>
<path d="M140.753 209.76C139.77 209.766 138.996 209.578 138.43 209.195C137.876 208.813 137.486 208.291 137.261 207.63C137.035 206.957 136.92 206.185 136.914 205.313L136.883 200.527C136.877 199.61 136.982 198.814 137.199 198.139C137.415 197.464 137.798 196.943 138.348 196.575C138.909 196.207 139.68 196.02 140.663 196.013C141.59 196.007 142.315 196.163 142.836 196.479C143.368 196.785 143.746 197.23 143.971 197.814C144.195 198.397 144.31 199.076 144.315 199.849L144.323 200.975L141.971 200.99L141.963 199.831C141.961 199.455 141.937 199.113 141.89 198.804C141.855 198.495 141.749 198.253 141.571 198.078C141.404 197.891 141.111 197.799 140.691 197.802C140.272 197.805 139.963 197.906 139.766 198.106C139.579 198.295 139.459 198.555 139.406 198.887C139.353 199.207 139.328 199.572 139.331 199.98L139.369 205.81C139.372 206.296 139.413 206.699 139.493 207.019C139.572 207.327 139.712 207.564 139.911 207.728C140.122 207.881 140.404 207.957 140.758 207.955C141.166 207.952 141.453 207.856 141.617 207.667C141.792 207.467 141.901 207.207 141.943 206.887C141.985 206.566 142.005 206.207 142.002 205.81L141.994 204.601L144.346 204.585L144.353 205.662C144.359 206.457 144.258 207.164 144.053 207.784C143.847 208.393 143.48 208.875 142.952 209.232C142.436 209.578 141.702 209.754 140.753 209.76ZM148.836 209.674C148.118 209.679 147.532 209.55 147.077 209.288C146.623 209.015 146.284 208.62 146.059 208.102C145.846 207.573 145.737 206.939 145.732 206.199L145.713 203.318C145.708 202.556 145.809 201.915 146.016 201.394C146.233 200.874 146.567 200.48 147.018 200.212C147.48 199.944 148.064 199.807 148.771 199.803C149.533 199.798 150.125 199.938 150.546 200.222C150.979 200.506 151.285 200.924 151.465 201.475C151.657 202.014 151.755 202.676 151.76 203.46L151.769 204.818L147.959 204.843L147.972 206.731C147.974 207.041 148.003 207.294 148.06 207.493C148.127 207.691 148.227 207.834 148.36 207.921C148.494 208.009 148.654 208.052 148.842 208.051C149.04 208.049 149.2 208.004 149.321 207.915C149.442 207.815 149.529 207.676 149.583 207.499C149.637 207.311 149.663 207.079 149.662 206.803L149.656 206.008L151.76 205.994L151.764 206.64C151.77 207.612 151.532 208.359 151.05 208.881C150.568 209.403 149.829 209.667 148.836 209.674ZM147.952 203.734L149.641 203.723L149.636 202.812C149.633 202.48 149.604 202.216 149.548 202.017C149.491 201.808 149.402 201.659 149.28 201.572C149.157 201.473 148.986 201.425 148.765 201.426C148.566 201.427 148.407 201.478 148.286 201.578C148.165 201.678 148.078 201.845 148.024 202.077C147.97 202.309 147.945 202.64 147.948 203.071L147.952 203.734ZM153.378 209.495L153.315 199.922L155.567 199.907L155.577 201.381C155.905 200.816 156.233 200.411 156.563 200.166C156.893 199.91 157.256 199.78 157.654 199.778C157.72 199.777 157.775 199.783 157.819 199.793C157.874 199.793 157.935 199.798 158.002 199.809L158.017 202.144C157.884 202.09 157.735 202.046 157.569 202.014C157.414 201.971 157.254 201.95 157.088 201.951C156.79 201.953 156.52 202.027 156.278 202.172C156.036 202.317 155.806 202.556 155.587 202.889L155.63 209.48L153.378 209.495ZM161.933 209.555C161.326 209.559 160.845 209.463 160.491 209.266C160.147 209.07 159.902 208.784 159.756 208.41C159.61 208.036 159.535 207.589 159.532 207.07L159.495 201.372L158.534 201.379L158.524 199.888L159.485 199.882L159.466 197.017L161.735 197.002L161.754 199.867L163.212 199.857L163.221 201.348L161.764 201.358L161.8 206.856C161.802 207.188 161.875 207.424 162.02 207.567C162.164 207.699 162.38 207.763 162.667 207.762C162.788 207.761 162.904 207.754 163.015 207.743C163.136 207.731 163.252 207.719 163.362 207.707L163.374 209.43C163.186 209.453 162.965 209.477 162.712 209.5C162.469 209.535 162.209 209.553 161.933 209.555ZM165.097 209.419L165.044 201.419L164.017 201.426L164.007 199.852L165.034 199.846L165.03 199.233C165.026 198.625 165.094 198.112 165.235 197.691C165.376 197.271 165.622 196.949 165.974 196.726C166.326 196.502 166.811 196.389 167.43 196.385C167.595 196.384 167.766 196.394 167.943 196.415C168.12 196.424 168.302 196.44 168.49 196.461L168.5 198.051C168.423 198.04 168.34 198.03 168.252 198.019C168.163 198.009 168.081 198.004 168.003 198.004C167.749 198.006 167.562 198.084 167.442 198.24C167.332 198.384 167.279 198.644 167.281 199.019L167.286 199.831L171.477 199.803L171.539 209.376L169.303 209.391L169.251 201.391L167.297 201.404L167.349 209.404L165.097 209.419ZM169.396 198.293L169.384 196.422L171.471 196.408L171.483 198.28L169.396 198.293ZM173.75 209.362L173.697 201.362L172.671 201.369L172.66 199.796L173.687 199.789L173.683 199.176C173.679 198.569 173.748 198.055 173.888 197.634C174.029 197.214 174.275 196.892 174.627 196.669C174.979 196.446 175.464 196.332 176.083 196.328C176.248 196.327 176.42 196.337 176.596 196.358C176.773 196.368 176.955 196.383 177.143 196.404L177.154 197.994C177.076 197.983 176.993 197.973 176.905 197.963C176.817 197.952 176.734 197.947 176.656 197.948C176.402 197.949 176.215 198.028 176.095 198.183C175.985 198.327 175.932 198.587 175.934 198.963L175.94 199.774L180.13 199.747L180.192 209.32L177.957 209.334L177.904 201.335L175.95 201.348L176.002 209.347L173.75 209.362ZM178.05 198.237L178.037 196.365L180.124 196.351L180.136 198.223L178.05 198.237ZM184.855 209.438C184.115 209.443 183.518 209.309 183.064 209.036C182.62 208.752 182.292 208.351 182.079 207.833C181.876 207.305 181.773 206.681 181.768 205.964L181.749 203.082C181.745 202.342 181.84 201.712 182.035 201.192C182.242 200.672 182.57 200.272 183.021 199.993C183.472 199.714 184.062 199.572 184.791 199.567C185.475 199.563 186.033 199.67 186.465 199.888C186.909 200.094 187.231 200.418 187.432 200.858C187.634 201.288 187.737 201.834 187.741 202.496L187.747 203.291L185.627 203.305L185.621 202.46C185.619 202.129 185.59 201.87 185.533 201.682C185.488 201.484 185.404 201.347 185.282 201.27C185.16 201.183 185 201.139 184.801 201.141C184.602 201.142 184.442 201.198 184.322 201.309C184.201 201.41 184.114 201.576 184.06 201.808C184.017 202.04 183.997 202.361 184 202.769L184.023 206.28C184.027 206.899 184.096 207.318 184.23 207.538C184.364 207.747 184.574 207.85 184.861 207.848C185.082 207.847 185.247 207.796 185.357 207.696C185.478 207.596 185.554 207.452 185.586 207.264C185.629 207.065 185.65 206.827 185.648 206.551L185.641 205.524L187.761 205.511L187.767 206.421C187.771 207.062 187.67 207.609 187.463 208.063C187.267 208.517 186.949 208.862 186.509 209.096C186.08 209.32 185.529 209.434 184.855 209.438ZM191.123 209.397C190.692 209.4 190.322 209.292 190.011 209.073C189.7 208.844 189.461 208.558 189.293 208.217C189.125 207.865 189.04 207.501 189.037 207.125C189.034 206.529 189.141 206.026 189.359 205.616C189.577 205.206 189.867 204.862 190.23 204.583C190.593 204.305 191.005 204.065 191.467 203.863C191.93 203.65 192.398 203.46 192.872 203.291L192.866 202.463C192.864 202.187 192.841 201.955 192.795 201.767C192.761 201.58 192.688 201.437 192.577 201.338C192.477 201.24 192.317 201.191 192.096 201.192C191.908 201.194 191.754 201.239 191.633 201.328C191.523 201.417 191.441 201.544 191.387 201.71C191.344 201.865 191.318 202.048 191.308 202.258L191.279 202.837L189.142 202.769C189.167 201.664 189.433 200.851 189.937 200.329C190.453 199.795 191.235 199.525 192.284 199.518C193.244 199.512 193.942 199.772 194.376 200.3C194.821 200.827 195.046 201.543 195.052 202.448L195.081 206.871C195.084 207.224 195.091 207.544 195.104 207.831C195.128 208.118 195.152 208.377 195.176 208.609C195.21 208.841 195.239 209.045 195.262 209.221L193.242 209.234C193.207 209.014 193.161 208.766 193.104 208.49C193.058 208.203 193.024 207.994 193.001 207.861C192.893 208.249 192.686 208.603 192.378 208.925C192.071 209.237 191.653 209.394 191.123 209.397ZM191.94 207.719C192.083 207.718 192.216 207.684 192.337 207.617C192.469 207.539 192.584 207.45 192.683 207.35C192.782 207.25 192.853 207.161 192.896 207.084L192.879 204.417C192.637 204.562 192.406 204.707 192.186 204.852C191.977 204.997 191.791 205.158 191.626 205.336C191.473 205.503 191.352 205.686 191.265 205.885C191.189 206.084 191.152 206.316 191.154 206.581C191.156 206.935 191.224 207.216 191.358 207.425C191.503 207.623 191.697 207.721 191.94 207.719ZM199.441 209.31C198.834 209.314 198.353 209.218 197.998 209.021C197.655 208.825 197.41 208.539 197.264 208.165C197.118 207.79 197.043 207.344 197.04 206.825L197.003 201.127L196.042 201.133L196.032 199.643L196.993 199.637L196.974 196.771L199.243 196.756L199.262 199.622L200.719 199.612L200.729 201.103L199.272 201.112L199.308 206.611C199.31 206.942 199.383 207.179 199.528 207.322C199.672 207.453 199.888 207.518 200.175 207.516C200.296 207.515 200.412 207.509 200.522 207.497C200.644 207.486 200.76 207.474 200.87 207.462L200.881 209.185C200.694 209.208 200.473 209.231 200.219 209.255C199.977 209.29 199.717 209.308 199.441 209.31ZM202.24 209.176L202.177 199.603L204.43 199.588L204.492 209.161L202.24 209.176ZM202.167 198.079L202.155 196.207L204.408 196.193L204.42 198.064L202.167 198.079ZM209.181 209.279C208.486 209.284 207.911 209.161 207.456 208.91C207.002 208.648 206.657 208.269 206.422 207.774C206.198 207.278 206.084 206.677 206.079 205.97L206.058 202.757C206.053 202.051 206.16 201.448 206.377 200.95C206.606 200.452 206.946 200.074 207.397 199.817C207.848 199.549 208.421 199.413 209.117 199.408C209.812 199.404 210.387 199.532 210.842 199.794C211.307 200.045 211.652 200.419 211.876 200.914C212.111 201.409 212.231 202.01 212.236 202.717L212.257 205.93C212.261 206.637 212.149 207.239 211.921 207.738C211.703 208.236 211.363 208.619 210.901 208.887C210.45 209.144 209.877 209.275 209.181 209.279ZM209.188 207.722C209.442 207.721 209.629 207.648 209.749 207.503C209.87 207.359 209.946 207.165 209.978 206.922C210.009 206.668 210.024 206.392 210.022 206.094L209.999 202.583C209.997 202.284 209.979 202.014 209.944 201.771C209.909 201.529 209.831 201.336 209.708 201.193C209.586 201.039 209.397 200.963 209.144 200.965C208.89 200.967 208.702 201.045 208.582 201.2C208.461 201.345 208.38 201.539 208.337 201.782C208.306 202.025 208.291 202.296 208.293 202.594L208.316 206.105C208.318 206.403 208.336 206.679 208.371 206.933C208.417 207.175 208.501 207.368 208.623 207.511C208.746 207.653 208.934 207.724 209.188 207.722ZM213.819 209.1L213.756 199.527L216.009 199.512L216.015 200.473C216.355 200.139 216.712 199.872 217.087 199.671C217.472 199.458 217.885 199.351 218.327 199.348C218.724 199.345 219.04 199.443 219.273 199.64C219.506 199.826 219.679 200.079 219.791 200.398C219.904 200.718 219.961 201.065 219.964 201.441L220.013 209.059L217.761 209.074L217.714 201.903C217.712 201.616 217.667 201.395 217.577 201.241C217.488 201.087 217.316 201.011 217.062 201.013C216.908 201.014 216.737 201.059 216.55 201.148C216.374 201.238 216.198 201.349 216.022 201.483L216.072 209.085L213.819 209.1ZM224.265 209.181C223.459 209.186 222.795 208.975 222.273 208.548C221.751 208.121 221.377 207.494 221.151 206.667L222.82 206.01C222.956 206.528 223.135 206.924 223.357 207.199C223.58 207.474 223.868 207.61 224.221 207.607C224.486 207.606 224.685 207.538 224.816 207.405C224.948 207.271 225.013 207.089 225.012 206.857C225.01 206.592 224.925 206.355 224.758 206.146C224.602 205.927 224.33 205.658 223.942 205.34L222.776 204.371C222.354 204.009 222.009 203.641 221.742 203.268C221.485 202.883 221.355 202.403 221.351 201.829C221.348 201.31 221.461 200.868 221.69 200.502C221.931 200.125 222.255 199.836 222.662 199.634C223.08 199.422 223.543 199.314 224.051 199.311C224.824 199.305 225.444 199.533 225.911 199.994C226.388 200.444 226.696 201.038 226.833 201.777L225.363 202.416C225.306 202.151 225.222 201.909 225.11 201.689C225.009 201.457 224.876 201.271 224.709 201.128C224.542 200.986 224.349 200.915 224.128 200.917C223.896 200.918 223.709 200.991 223.566 201.136C223.435 201.28 223.37 201.463 223.371 201.683C223.372 201.871 223.451 202.064 223.607 202.262C223.774 202.459 224.007 202.684 224.307 202.936L225.49 203.988C225.745 204.208 225.989 204.443 226.223 204.696C226.457 204.948 226.652 205.234 226.808 205.553C226.965 205.861 227.045 206.22 227.047 206.628C227.051 207.18 226.927 207.645 226.675 208.022C226.435 208.399 226.1 208.688 225.671 208.89C225.252 209.08 224.784 209.177 224.265 209.181Z" fill="#008738"/>
</svg>
