<svg width="289" height="289" viewBox="0 0 289 289" fill="none" xmlns="http://www.w3.org/2000/svg">
<path d="M142.116 23.4337C75.2882 24.8186 22.0458 80.3134 23.4306 147.142C24.8153 213.971 80.3102 267.214 147.138 265.829C213.967 264.444 267.209 208.949 265.825 142.12C264.441 75.2924 208.945 22.05 142.116 23.4337ZM147.05 261.549C82.5821 262.884 29.0469 211.522 27.7106 147.054C26.3743 82.5863 77.7367 29.0501 142.205 27.7148C206.674 26.3796 260.209 77.7409 261.546 142.21C262.881 206.677 211.519 260.213 147.05 261.549Z" fill="#008738"/>
<path d="M206.581 137.044L82.4863 139.618L82.5138 140.942L206.609 138.368L206.581 137.044Z" fill="#008738"/>
<path d="M206.694 142.509L82.5996 145.083L82.6271 146.408L206.722 143.834L206.694 142.509Z" fill="#008738"/>
<path d="M207.738 192.786L83.6436 195.36L83.671 196.685L207.766 194.11L207.738 192.786Z" fill="#008738"/>
<path d="M207.851 198.252L83.7568 200.826L83.7843 202.15L207.879 199.576L207.851 198.252Z" fill="#008738"/>
<path d="M113.373 98.0035C113.401 99.3551 114.52 100.428 115.871 100.4L171.516 99.2477C172.877 99.2193 173.951 98.1006 173.923 96.75L172.77 41.1048C172.742 39.7431 171.623 38.6695 170.261 38.698L114.616 39.8505C113.264 39.8789 112.192 40.9976 112.219 42.3592L113.373 98.0035ZM133.366 65.7633C133.349 64.9337 133.428 64.1657 133.596 63.5017C133.684 63.1591 133.988 62.9077 134.35 62.9002L136.032 62.8656C136.394 62.8581 136.707 63.0964 136.81 63.4346C136.993 64.0268 137.092 64.7171 137.129 65.4611L140.531 63.2191L140.498 62.6239C140.498 62.6239 139.532 51.4673 141.398 47.011C141.844 45.9378 143.323 45.9066 143.813 46.9613C145.863 51.3366 145.349 62.5234 145.349 62.5234L145.34 63.1198L148.842 65.2181C148.837 64.4728 148.919 63.7793 149.067 63.1809C149.156 62.8384 149.47 62.5868 149.831 62.5792L151.513 62.5446C151.864 62.5372 152.188 62.7754 152.291 63.1136C152.474 63.7701 152.597 64.5338 152.614 65.3634C152.629 66.0864 152.568 66.7697 152.443 67.3681L164.579 74.6425L164.649 78.0576L145.214 71.9565L145.042 83.6369C145.034 84.3289 145.006 85.0211 144.967 85.7143L151.121 89.8765L151.162 91.8445L144.537 89.5765C144.426 90.3669 144.282 91.1363 144.117 91.9058C143.981 92.5263 143.119 92.5442 142.958 91.9299C142.762 91.1679 142.585 90.4046 142.431 89.6202L135.916 92.161L135.875 90.193L141.851 85.78C141.784 85.0895 141.727 84.3989 141.691 83.7071L141.034 72.0445L121.868 78.9454L121.798 75.5302L133.622 67.7602C133.469 67.1666 133.381 66.4874 133.366 65.7633Z" fill="#008738"/>
<path d="M270.954 117.961C270.759 118.169 270.724 118.551 270.956 118.72C270.695 118.53 269.806 119.009 269.468 118.932C269.068 118.84 268.784 118.329 268.453 118.075C268.451 118.074 268.449 118.073 268.447 118.072C268.669 119.108 268.878 120.149 269.075 121.195C270.36 121.755 272.234 121.731 272.527 120.395C272.712 121.483 272.371 122.649 271.629 123.466C271.123 123.153 270.504 123.027 269.915 123.115C269.897 124.258 270.903 125.322 272.046 125.366C271.45 126.174 272.473 127.262 273.46 127.448C274.382 127.621 275.417 127.488 276.204 127.96C276.008 126.404 275.78 124.858 275.53 123.321C275.173 123.738 274.793 124.137 274.37 124.486C274.329 124.521 274.282 124.556 274.229 124.555C274.167 124.556 274.117 124.509 274.07 124.469C273.833 124.266 273.399 124.204 273.262 124.485C273.224 124.562 273.218 124.649 273.182 124.728C273.09 124.929 272.824 124.996 272.61 124.941C272.395 124.887 272.219 124.74 272.041 124.608C271.862 124.476 271.664 124.35 271.442 124.345C271.352 124.344 271.26 124.363 271.173 124.339C270.903 124.265 270.845 123.864 270.767 123.641C271.087 123.705 271.411 123.994 271.72 124.133C271.832 124.183 271.954 124.23 272.074 124.209C272.315 124.168 272.43 123.894 272.486 123.656C272.58 123.256 272.631 122.833 272.852 122.487C272.883 122.44 272.919 122.391 272.973 122.372C273.042 122.348 273.116 122.38 273.185 122.407C273.738 122.626 274.405 122.525 274.868 122.152C274.825 122.411 274.821 122.747 275.061 122.855C275.13 122.887 275.209 122.891 275.285 122.89C275.344 122.889 275.4 122.873 275.458 122.865C275.161 121.067 274.827 119.282 274.458 117.51C273.548 117.413 272.624 117.44 271.726 117.619C271.444 117.673 271.149 117.752 270.954 117.961Z" fill="#008738"/>
<path d="M103.067 265.662C103.368 266.518 103.668 267.373 103.969 268.229C102.716 267.349 100.782 268.254 100.354 269.646C102.99 270.582 105.66 271.441 108.368 272.213C108.598 271.283 108.58 270.289 108.285 269.376C109.138 269.624 110.099 269.757 110.882 269.336C111.664 268.916 112.069 267.749 111.456 267.106C112.065 267.251 112.697 267.388 113.313 267.338C110.342 266.579 107.413 265.713 104.528 264.747C104.018 265.014 103.523 265.312 103.067 265.662ZM104.458 269.967C104.642 269.68 104.827 269.393 105.01 269.105C105.095 268.973 105.183 268.837 105.313 268.748C105.442 268.659 105.623 268.626 105.755 268.712C105.785 268.732 105.812 268.757 105.826 268.79C105.849 268.844 105.832 268.906 105.82 268.964C105.77 269.202 105.814 269.463 105.96 269.66C106.104 269.856 106.353 269.977 106.595 269.948C106.943 269.906 107.19 269.595 107.505 269.444C107.538 269.429 107.573 269.415 107.608 269.422C107.682 269.438 107.701 269.533 107.706 269.608C107.741 270.218 107.862 270.923 107.772 271.524C107.716 271.428 107.641 271.229 107.502 271.186C107.421 271.162 107.335 271.181 107.251 271.189C106.709 271.241 106.261 270.797 105.762 270.577C105.369 270.403 104.927 270.367 104.523 270.216C104.481 270.201 104.436 270.181 104.416 270.141C104.39 270.085 104.424 270.02 104.458 269.967Z" fill="#008738"/>
<path d="M36.9239 68.8946C37.9679 69.0321 38.0707 66.8367 39.1191 66.9345C39.371 66.9585 39.5812 67.1255 39.777 67.2862C40.3855 67.7881 40.995 68.2911 41.6036 68.7931C41.3654 69.8514 39.7018 69.8323 39.1332 70.7553C38.608 71.6067 39.2812 72.5048 40.1664 73.1384C62.4957 40.6067 99.6346 18.903 142.004 18.0254C170.954 17.4252 197.862 26.6466 219.553 42.6158C219.581 42.5159 219.609 42.4159 219.637 42.3169C219.664 42.216 219.696 42.1103 219.771 42.0366C219.881 41.9278 220.054 41.9218 220.205 41.8869C220.417 41.8382 220.613 41.7198 220.754 41.5544C220.803 41.4965 220.849 41.4242 220.838 41.3489C220.827 41.2777 220.769 41.2235 220.714 41.1765C220.485 40.9778 220.257 40.7782 220.028 40.5795C220.067 40.6139 221.643 39.9257 221.826 39.8735C222.378 39.717 223.134 39.4729 223.701 39.5586C223.578 40.0237 222.472 40.4389 222.074 40.6801C222.024 40.7109 221.971 40.7444 221.948 40.7986C221.924 40.8557 221.941 40.9215 221.958 40.9822C222.149 41.6514 222.341 42.3206 222.531 42.9908C221.781 42.9673 221.033 43.0414 220.293 43.1593C237.16 55.7654 250.808 72.4815 259.721 91.845C260.193 91.7477 260.663 91.6092 261.132 91.6291C260.966 91.6528 260.807 91.7523 260.718 91.8981C260.347 92.5041 261.095 92.9238 260.945 93.4467C260.897 93.6112 260.766 93.7202 260.601 93.7961C260.867 94.4006 261.132 95.005 261.389 95.6147C261.695 95.774 262.051 95.8352 262.386 95.7541C262.973 95.6128 263.465 95.1068 264.069 95.1304C263.763 95.0184 263.447 94.9004 263.219 94.6696C262.99 94.4388 262.875 94.0604 263.042 93.7809C263.273 93.3965 263.948 93.2839 263.925 92.8362C263.919 92.7162 263.856 92.6073 263.793 92.5044C262.982 91.1787 261.929 89.9282 261.657 88.3987C262.99 88.7181 264.218 89.3374 265.449 89.953C262.046 82.4619 257.97 75.3446 253.295 68.6788C253.149 68.8266 253.011 68.9782 252.89 69.1292C252.92 68.8266 252.949 68.5251 252.979 68.2225C251.53 66.1734 250.017 64.174 248.457 62.2135C248.224 62.5214 247.745 62.6512 247.669 63.03C247.646 63.1474 247.669 63.2699 247.647 63.3874C247.625 63.505 247.53 63.6271 247.412 63.6118C247.437 63.2908 247.407 62.9668 247.319 62.657C247.272 62.4883 247.204 62.3177 247.077 62.1962C246.951 62.0747 246.751 62.0161 246.593 62.0946C246.736 62.0569 246.881 62.0174 247.005 61.9379C247.128 61.8573 247.229 61.7276 247.236 61.5797C247.241 61.4777 247.201 61.3718 247.231 61.2741C247.25 61.2145 247.293 61.1661 247.334 61.1205C247.376 61.073 247.419 61.0215 247.462 60.971C245.999 59.1767 244.492 57.4197 242.938 55.7048C242.403 55.9591 241.905 56.3161 241.43 56.678C241.363 55.832 240.467 55.2476 239.618 55.2215C238.769 55.1954 237.968 55.5791 237.206 55.9531C236.67 54.1255 235.887 52.3695 234.886 50.7501C235.807 51.429 237.132 51.2548 238.027 50.5732C236.871 49.425 235.694 48.2972 234.497 47.1927C234.335 47.5971 234.455 48.1065 234.816 48.3599C234.298 48.5304 233.78 48.6999 233.262 48.8674C233.173 48.8957 233.079 48.9257 232.987 48.9056C232.72 48.8491 232.696 48.4766 232.53 48.2603C232.387 48.0761 232.129 48.0124 231.898 48.0454C231.667 48.0784 231.458 48.1926 231.255 48.3083C231.215 47.9646 231.423 47.6475 231.605 47.3532C231.763 47.097 231.905 46.8113 231.869 46.502C231.844 46.2789 231.588 46.0367 231.976 46.0315C232.554 46.0249 232.548 47.7018 233.114 47.0365C233.29 46.8281 233.464 46.6175 233.639 46.4069C233.497 46.278 233.354 46.1521 233.211 46.0242C233.132 46.0765 233.044 46.118 232.945 46.1465C232.318 45.4049 231.621 44.6203 230.672 44.4127C229.723 44.2043 228.537 44.9416 228.702 45.8987C227.767 45.1544 228.997 43.8878 229.351 42.675C228.609 42.057 227.858 41.4492 227.101 40.8479C226.757 40.9041 226.417 40.9948 226.113 41.1028C226.029 40.723 225.983 40.3356 225.95 39.9472C225.363 39.4902 224.776 39.0313 224.18 38.5837C222.927 38.8184 221.706 39.2235 220.576 39.8143C219.825 38.02 219.073 36.2247 218.323 34.4304C196.485 19.7814 170.108 11.4508 141.88 12.0358C98.1223 12.9425 59.6956 35.0586 36.2104 68.3413C36.3946 68.5994 36.6143 68.8545 36.9239 68.8946ZM225.977 44.7468C226.073 44.3416 226.207 44.3353 226.581 44.2726C226.784 44.2382 227.435 43.987 227.606 44.1786C227.743 44.3331 227.5 44.8258 227.503 45.0469C227.507 45.4016 227.635 45.7542 227.866 46.0253C228.157 46.3679 228.579 46.5645 228.935 46.8386C228.971 46.8658 229.007 46.8971 229.019 46.9403C229.035 46.9969 229.006 47.0556 228.971 47.1027C228.808 47.3224 228.535 47.423 228.289 47.542C228.043 47.6609 227.788 47.8394 227.741 48.1093C227.706 48.3051 227.747 48.5817 227.556 48.6362C227.396 48.6815 227.272 48.4999 227.208 48.3468C227.111 48.1134 227.019 47.8735 226.865 47.6734C226.711 47.4732 226.482 47.3136 226.229 47.3116C226.403 47.2384 226.559 47.1226 226.68 46.9776C226.713 46.9383 226.743 46.8947 226.745 46.8437C226.749 46.7687 226.689 46.7073 226.634 46.6573C226.419 46.4589 226.198 46.2558 225.925 46.1516C225.653 46.0475 225.313 46.0639 225.106 46.2697C225.535 45.8585 225.841 45.3232 225.977 44.7468Z" fill="#008738"/>
<path d="M129.83 272.752C129.515 272.833 129.13 272.741 128.973 272.456C128.758 272.063 129.001 271.424 128.604 271.217C128.497 271.162 128.371 271.162 128.251 271.164C126.698 271.196 125.086 271.474 123.629 270.937C124.048 270.498 124.508 270.108 124.991 269.744C122.379 269.335 119.796 268.839 117.237 268.272C117.117 268.987 117.188 269.734 117.478 270.397C116.33 270.356 115.182 270.314 114.034 270.273C113.831 271.363 113.628 272.453 113.426 273.543C118.862 274.86 124.425 275.844 130.093 276.464C130.13 276.179 130.008 275.868 129.757 275.728C129.558 275.617 129.316 275.622 129.1 275.547C128.885 275.471 128.683 275.238 128.781 275.033C129.451 275.12 130.151 274.666 130.345 274.02C130.519 273.441 130.331 272.761 130.657 272.252C130.407 272.458 130.145 272.671 129.83 272.752ZM127.376 275.509C126.805 275.162 125.921 275.528 125.245 275.155C125.704 274.53 125.739 273.664 126.153 273.021C126.091 273.176 126.095 273.364 126.177 273.513C126.512 274.139 127.252 273.706 127.628 274.099C127.967 274.456 127.587 275.187 127.376 275.509Z" fill="#008738"/>
<path d="M97.0801 261.988C97.1034 262.788 97.1267 263.588 97.1501 264.389C97.8035 263.953 98.4561 263.516 99.1096 263.08C99.2642 263.872 99.7359 264.596 100.398 265.056C101.122 264.728 101.845 264.4 102.569 264.071C100.719 263.419 98.8888 262.725 97.0801 261.988Z" fill="#008738"/>
<path d="M166.967 272.787C166.274 273.292 165.478 273.825 164.632 273.686C163.786 273.546 163.211 272.293 163.922 271.814C164.261 271.583 164.747 271.626 165.047 271.347C165.519 270.909 165.163 270.27 164.82 269.644C164.454 269.703 164.089 269.765 163.721 269.821C164.093 270.108 164.897 270.528 164.159 270.802C163.88 270.906 163.613 270.609 163.387 270.498C163.082 270.348 162.727 270.348 162.429 270.188C162.397 270.171 162.366 270.151 162.351 270.118C162.336 270.087 162.342 270.05 162.352 270.017C159.89 270.363 157.404 270.638 154.898 270.84C154.87 270.907 154.852 270.979 154.842 271.052C154.777 271.509 154.991 272.05 154.428 271.761C154.044 271.564 153.642 271.083 153.228 270.981C153.277 270.994 153.324 270.976 153.372 270.96C151.344 271.099 149.303 271.195 147.249 271.237C147.229 271.238 147.21 271.238 147.191 271.238C147.175 271.275 147.153 271.308 147.142 271.346C147.092 271.513 147.074 271.672 146.997 271.824C146.812 271.716 146.759 271.47 146.686 271.242C144.734 271.274 142.789 271.266 140.857 271.209C140.89 271.239 140.916 271.277 140.951 271.306C141.019 271.362 141.096 271.424 141.106 271.512C141.115 271.577 141.083 271.639 141.049 271.696C140.641 272.368 139.782 272.65 139.343 273.301C139.129 273.616 139.032 273.992 138.939 274.36C138.617 274.214 138.373 273.925 138.249 273.595C138.184 273.421 138.151 273.238 138.072 273.07C137.911 272.728 137.425 272.532 137.276 272.993C137.298 272.755 137.404 272.582 137.557 272.405C137.692 272.247 137.888 272.193 138.016 272C138.081 271.903 138.2 271.298 138.256 271.276C138.379 271.228 138.437 271.425 138.536 271.512C138.682 271.641 138.905 271.502 139.047 271.367C139.125 271.292 139.204 271.218 139.281 271.143C138.039 271.092 136.803 271.023 135.57 270.935C135.544 271.272 135.59 271.602 135.802 271.859C135.929 272.014 136.101 272.126 136.227 272.281C136.352 272.436 136.423 272.667 136.311 272.833C136.236 272.945 136.099 272.996 135.969 273.029C135.33 273.187 134.621 273.028 134.112 272.613C133.781 273.258 132.797 273.358 132.503 274.02C132.477 274.079 132.457 274.145 132.47 274.208C132.49 274.299 132.57 274.361 132.646 274.412C132.928 274.597 133.25 274.727 133.493 274.96C133.735 275.193 133.879 275.584 133.702 275.871C133.621 276.002 133.488 276.089 133.357 276.167C132.98 276.389 132.57 276.544 132.15 276.666C135.062 276.939 137.998 277.123 140.96 277.204C141.021 276.498 140.758 275.767 140.116 275.44C141.301 275.097 142.661 275.459 143.518 276.345C143.408 275.299 143.315 274.167 143.861 273.267C144.406 272.367 145.866 271.983 146.502 272.822C146.973 273.447 146.745 274.343 146.4 275.046C146.057 275.748 145.603 276.465 145.682 277.243C145.955 277.24 146.229 277.24 146.502 277.236C146.283 277.166 146.188 276.496 146.153 276.326C146.13 276.214 146.119 276.074 146.21 276.004C146.287 275.945 146.395 275.967 146.491 275.968C146.77 275.972 147.025 275.768 147.135 275.512C147.245 275.255 147.23 274.96 147.153 274.691C147.095 274.49 147.005 274.299 146.972 274.092C146.911 273.714 147.054 273.327 147.278 273.017C147.501 272.708 147.801 272.462 148.097 272.221C148.259 273.189 148.616 274.124 149.141 274.954C148.65 275.411 148.287 276.005 148.104 276.65C147.748 276.563 147.353 276.564 147.037 276.75C146.865 276.851 146.709 277.23 146.541 277.235C146.821 277.232 147.098 277.235 147.378 277.228C148.736 277.201 150.088 277.145 151.436 277.076C151.434 277.07 151.431 277.065 151.43 277.059C151.406 276.901 151.442 276.741 151.478 276.584C151.569 276.188 151.66 275.791 151.751 275.395C151.777 275.284 151.804 275.169 151.872 275.077C152.038 274.846 152.372 274.838 152.634 274.726C153.199 274.482 153.378 273.754 153.317 273.141C153.255 272.529 153.031 271.926 153.09 271.313C153.868 272.327 154.977 273.085 156.205 273.439C155.191 274.398 154.428 275.612 153.962 276.927C156.12 276.776 158.262 276.571 160.388 276.318C160.446 276.152 160.488 275.982 160.493 275.807C160.562 275.963 160.61 276.127 160.671 276.287C163.136 275.989 165.577 275.62 167.997 275.189C167.622 275.079 167.246 274.971 166.871 274.862C167.231 274.24 167.269 273.44 166.967 272.787Z" fill="#008738"/>
<path d="M277.21 147.688C276.566 147.967 275.926 148.532 275.485 149.087C275.597 147.942 275.709 146.797 275.822 145.652C276.297 145.615 276.778 145.571 277.249 145.491C277.257 144.292 277.25 143.09 277.225 141.883C277.22 141.62 277.206 141.359 277.199 141.097C276.609 140.803 276.484 139.694 277.143 139.406C277.142 139.4 277.143 139.395 277.142 139.389C275.032 139.199 272.851 140.107 271.503 141.743C271.373 141.449 271.274 141.143 271.194 140.832C271.206 141.224 271.225 141.614 271.234 142.007C272.359 196.331 238.928 243.481 191.145 262.41C191.12 262.504 191.095 262.6 191.09 262.697C191.072 263.015 191.394 263.443 191.222 263.726C190.854 264.328 189.746 263.627 189.445 263.338C189.736 263.254 190.212 263.385 190.401 263.062C190.45 262.98 190.461 262.883 190.471 262.789C190.474 262.753 190.469 262.716 190.472 262.681C188.3 263.526 186.097 264.308 183.868 265.036C184.341 265.383 185.008 265.496 185.459 265.136C185.317 265.781 186.032 266.353 186.693 266.33C187.353 266.308 187.927 265.895 188.456 265.5C188.669 266.254 189.461 266.799 190.242 266.728C191.024 266.657 191.704 265.978 191.778 265.197C191.824 266.352 193.516 266.658 194.525 266.094C195.535 265.53 196.254 264.5 197.33 264.076C198.212 263.727 199.55 264.189 199.447 265.132C198.826 265.493 198.205 265.855 197.585 266.216C243.673 246.07 276.02 200.512 277.21 147.688ZM193.98 264.206C193.94 264.22 193.895 264.233 193.871 264.27C193.856 264.296 193.854 264.327 193.854 264.357C193.85 264.509 193.847 264.662 193.844 264.815C193.838 265.088 193.871 265.426 194.123 265.534C193.704 265.355 193.081 265.808 192.64 265.586C192.23 265.379 191.924 264.619 191.688 264.247C191.854 264.219 192.02 264.289 192.184 264.323C192.35 264.358 192.552 264.341 192.643 264.199C192.683 264.136 192.693 264.06 192.702 263.987C192.734 263.738 192.764 263.489 192.796 263.24C193.229 263.316 193.694 263.163 193.997 262.844C194.3 262.527 194.431 262.053 194.334 261.625C194.617 262.042 194.823 262.534 194.794 263.038C194.765 263.541 194.459 264.048 193.98 264.206ZM275.296 141.845C274.409 141.91 273.664 142.505 272.98 143.074C272.814 142.949 272.865 142.68 272.987 142.511C273.11 142.342 273.287 142.205 273.349 142.005C273.452 141.67 273.189 141.344 272.945 141.093C273.326 140.845 274.155 140.432 274.63 140.584C274.851 140.654 275.478 141.687 275.376 141.899C275.391 141.864 275.335 141.841 275.296 141.845Z" fill="#008738"/>
<path d="M94.8082 267.534C95.4431 267.793 96.0796 268.044 96.7193 268.293C96.897 267.753 96.8797 267.15 96.6408 266.633C96.0874 267.038 95.4667 267.454 94.8082 267.534Z" fill="#008738"/>
<path d="M186.245 267.52C185.884 267.667 185.597 267.957 185.241 268.116C184.084 268.633 182.664 267.128 183.247 266.003C181.66 266.25 180.166 267.061 179.096 268.259C179.136 267.674 178.911 267.1 178.535 266.651C174.9 267.662 171.196 268.51 167.435 269.195C167.448 269.644 167.461 270.093 167.474 270.542C168.127 270.106 168.78 269.669 169.433 269.234C169.588 270.025 170.06 270.749 170.722 271.21C172.471 270.416 174.219 269.621 175.968 268.828C176.432 269.209 176.895 269.59 177.359 269.969C175.923 270.284 174.558 270.919 173.391 271.814C173.641 272.524 173.89 273.233 174.139 273.944C176.255 273.461 178.351 272.93 180.425 272.349C180.24 272.248 180.038 272.179 179.827 272.179C179.835 271.992 179.844 271.806 179.852 271.619C179.855 271.564 179.859 271.504 179.895 271.462C179.972 271.374 180.118 271.432 180.228 271.395C180.313 271.366 180.366 271.283 180.412 271.206C180.571 270.942 180.73 270.678 180.889 270.415C181.195 270.931 181.528 271.432 181.874 271.923C181.971 271.895 182.068 271.867 182.165 271.838C182.265 271.714 182.366 271.589 182.466 271.463C182.488 271.437 182.513 271.409 182.546 271.409C182.578 271.409 182.603 271.432 182.624 271.455C182.662 271.495 182.726 271.566 182.797 271.653C184.65 271.095 186.484 270.496 188.301 269.861C188.315 269.821 188.336 269.785 188.348 269.744C188.687 268.522 187.419 267.043 186.245 267.52Z" fill="#008738"/>
<path d="M263.472 97.6152C263.407 97.6225 263.341 97.6388 263.293 97.6818C263.225 97.7431 263.21 97.8442 263.206 97.9362C263.189 98.273 263.238 98.6166 263.159 98.9439C263.118 99.112 263.029 99.2758 262.906 99.3966C263.779 101.672 264.586 103.979 265.329 106.317C265.795 105.985 266.122 105.488 266.088 104.905C266.981 105.755 267.354 107.112 267.023 108.299C267.87 107.676 268.801 107.024 269.854 107.041C270.905 107.058 271.976 108.125 271.57 109.097C271.269 109.819 270.38 110.074 269.6 110.132C268.82 110.189 267.972 110.159 267.339 110.621C267.064 110.822 266.899 111.165 266.856 111.507C266.929 111.777 267.001 112.048 267.073 112.318C267.152 112.402 267.245 112.475 267.371 112.513C267.378 112.675 267.319 112.796 267.224 112.886C267.578 114.256 267.913 115.635 268.222 117.023C268.423 117.16 268.665 117.235 268.899 117.185C269.211 117.117 269.437 116.851 269.626 116.594C269.8 116.354 269.965 116.107 270.119 115.855C270.199 115.723 270.278 115.587 270.398 115.49C270.522 115.389 270.679 115.339 270.832 115.292C271.22 115.17 271.608 115.05 271.997 114.928C272.106 114.893 272.219 114.859 272.333 114.871C272.617 114.899 272.791 115.183 273.021 115.353C273.308 115.565 273.669 115.569 274.021 115.475C273.63 113.741 273.199 112.022 272.741 110.313C272.057 110.917 271.48 111.642 271.061 112.452C270.418 112.258 269.723 112.245 269.073 112.413C268.969 112.061 268.768 111.72 268.448 111.542C268.266 111.441 267.821 111.512 267.76 111.343C267.681 111.123 268.237 110.685 268.369 110.565C268.454 110.488 268.57 110.408 268.675 110.452C268.764 110.489 268.8 110.593 268.848 110.677C268.986 110.92 269.291 111.036 269.568 111.002C269.845 110.968 270.092 110.806 270.285 110.604C270.429 110.453 270.549 110.278 270.711 110.146C271.006 109.904 271.412 109.831 271.793 109.867C272.1 109.897 272.393 109.994 272.684 110.099C272.002 107.57 271.256 105.069 270.431 102.605C270.263 102.897 270.133 103.211 270.081 103.544C270.067 103.631 270.051 103.729 269.981 103.782C269.93 103.822 269.859 103.826 269.794 103.825C269.008 103.811 268.331 103.213 267.546 103.161C267.167 103.136 266.793 103.242 266.428 103.347C266.391 102.996 266.518 102.638 266.74 102.365C266.857 102.222 266.998 102.099 267.102 101.948C267.316 101.637 267.241 101.118 266.768 101.221C266.985 101.121 267.187 101.125 267.418 101.168C267.622 101.205 267.768 101.346 267.998 101.359C268.115 101.365 268.697 101.163 268.745 101.2C268.848 101.282 268.708 101.432 268.682 101.561C268.644 101.754 268.877 101.875 269.065 101.93C269.484 102.051 269.903 102.173 270.323 102.294C269.875 100.97 269.404 99.6589 268.917 98.3545C268.745 98.3937 268.574 98.4299 268.405 98.4653C267.835 98.5871 267.206 98.8302 267.003 99.3766C266.934 99.5642 266.924 99.7692 266.853 99.9557C266.783 100.142 266.618 100.32 266.419 100.307C266.284 100.298 266.171 100.206 266.077 100.11C265.618 99.6379 265.398 98.946 265.499 98.2964C264.774 98.3344 264.192 97.5356 263.472 97.6152Z" fill="#008738"/>
<path d="M94.4581 260.89C50.3936 241.796 19.0811 198.325 18.0232 147.255C17.7678 134.937 19.2968 122.99 22.3594 111.655C22.292 111.622 22.2128 111.598 22.1441 111.626C22.0774 111.655 22.0402 111.724 22.0074 111.789C21.8712 112.06 21.7341 112.33 21.598 112.601C21.6221 112.555 20.5653 111.199 20.4693 111.034C20.1814 110.538 19.7574 109.867 19.7009 109.295C20.1813 109.3 20.8585 110.268 21.1903 110.595C21.2319 110.636 21.2773 110.679 21.3358 110.688C21.3972 110.698 21.4573 110.665 21.5112 110.633C21.9597 110.371 22.4093 110.11 22.8578 109.848C23.2467 108.489 23.6618 107.14 24.0942 105.801C23.7539 105.79 23.6989 105.661 23.5554 105.339C23.4715 105.15 23.0675 104.582 23.2117 104.369C23.3271 104.197 23.8652 104.311 24.079 104.254C24.3298 104.186 24.5476 104.038 24.736 103.858C25.1977 102.505 25.6853 101.165 26.1913 99.8331C25.9 99.893 25.5882 99.7974 25.297 99.7067C25.0096 99.6173 24.6983 99.5509 24.4065 99.6619C24.1957 99.7419 24.0252 100.05 23.9244 99.676C23.7745 99.1178 25.4014 98.708 24.6167 98.3252C24.2653 98.1539 23.9127 97.9845 23.5578 97.8189C23.7703 97.7542 23.9911 97.6852 24.1531 97.5317C24.314 97.3792 24.3944 97.1152 24.273 96.9299C24.7418 97.0793 25.3036 96.8083 25.4783 96.3487C25.7714 96.808 26.0635 97.2672 26.3544 97.7283C26.4047 97.807 26.4555 97.8918 26.4595 97.9845C26.4707 98.2575 26.1154 98.372 25.947 98.5871C25.8035 98.7703 25.8063 99.0366 25.8948 99.2521C25.9694 99.4323 26.0978 99.582 26.2328 99.7253C26.7645 98.3294 27.3184 96.9444 27.8971 95.5726C27.8575 95.6123 27.8152 95.6487 27.7765 95.6895C28.4188 94.1075 27.0173 92.0907 25.3105 92.1401C25.2355 91.4479 25.1316 90.696 24.6287 90.2143C24.4212 90.0155 24.1226 89.9181 23.832 89.9128C23.5561 90.519 23.2899 91.1291 23.0236 91.7403C23.0124 91.8447 22.9856 91.9457 22.9222 92.0386C22.9073 92.0603 22.8863 92.0705 22.8696 92.0892C21.8067 94.5429 20.8177 97.0351 19.902 99.562C20.497 99.358 21.0189 98.9008 21.5714 98.5637C22.2808 98.1308 23.3812 97.9902 23.7991 98.7094C23.236 99.5013 22.648 100.37 22.6806 101.341C22.7131 102.311 23.7216 103.279 24.6085 102.883C23.984 104.273 21.6644 102.457 20.3705 103.26C19.3122 103.917 19.9057 105.544 20.6022 106.578C19.783 106.992 18.8978 107.277 17.9901 107.417C18.5354 109.205 19.4758 110.87 20.7234 112.26C18.9727 113.58 17.2219 114.902 15.4711 116.222C16.2176 114.861 16.403 113.27 16.1396 111.748C13.2238 123.127 11.7789 135.076 12.0345 147.38C13.0716 197.426 41.8478 240.502 83.3478 262.221C83.8248 262.011 84.2698 261.744 84.5503 261.315C84.7166 261.893 84.8829 262.47 85.0481 263.049C85.0526 263.065 85.0563 263.082 85.0609 263.098C87.8286 264.496 90.6507 265.8 93.5246 267.005C93.214 266.562 93.1561 265.962 93.5989 265.662C93.9383 265.432 94.4244 265.474 94.7248 265.195C95.3486 264.617 94.5238 263.684 94.1992 262.897C93.9046 262.191 94.0635 261.51 94.4581 260.89ZM93.8341 264.649C93.555 264.753 93.2879 264.455 93.0627 264.344C92.7576 264.194 92.4022 264.194 92.104 264.035C92.0733 264.018 92.041 263.997 92.0268 263.965C92.0116 263.931 92.0172 263.892 92.0283 263.856C92.0996 263.627 92.3365 263.5 92.505 263.329C92.7749 263.055 92.8726 262.661 93.0017 262.299C93.0364 262.201 93.0891 262.091 93.1904 262.07C93.3304 262.041 93.4354 262.207 93.4411 262.349C93.4573 262.749 93.0701 263.135 93.2287 263.503C93.3423 263.765 94.7306 264.316 93.8341 264.649Z" fill="#008738"/>
<path d="M271.102 138.391C271.142 138.151 271.178 137.91 271.249 137.676C271.194 137.593 271.126 137.538 271.05 137.497C271.066 137.796 271.087 138.093 271.102 138.391Z" fill="#008738"/>
<path d="M173.547 274.075C172.945 273.962 172.295 274.119 171.757 274.458C172.355 274.333 172.953 274.208 173.547 274.075Z" fill="#008738"/>
<path d="M268.222 97.2555C268.327 97.2988 268.435 97.3304 268.544 97.3629C268.056 96.0876 267.556 94.8182 267.029 93.5625C266.715 93.8913 266.323 94.1311 265.88 94.0994C266.357 95.3607 266.976 96.736 268.222 97.2555Z" fill="#008738"/>
<path d="M234.349 47.0494C234.223 46.934 234.098 46.8166 233.972 46.7012C233.982 46.7272 233.984 46.7575 233.998 46.7818C234.073 46.9148 234.205 47.0167 234.349 47.0494Z" fill="#008738"/>
<path d="M31.5823 87.6215C32.7073 85.3991 33.8914 83.2119 35.1412 81.0667C35.0676 81.0934 34.9954 81.1262 34.9185 81.1225C34.8565 81.1191 34.7988 81.09 34.7441 81.0611C34.5819 80.9766 34.3793 80.9177 34.3052 80.7547C34.727 80.5115 35.0852 80.2146 35.3029 79.7679C35.3239 79.7235 35.3504 79.6736 35.3975 79.6627C35.421 79.6577 35.4467 79.663 35.4692 79.67C35.6059 79.7131 35.7226 79.8026 35.8367 79.8979C37.0469 77.8716 38.3083 75.879 39.6275 73.9265C38.9916 74.0245 38.3557 74.1214 37.7197 74.2194C37.3951 73.2604 37.0441 72.2811 36.3846 71.5127C35.9556 71.0124 35.3635 70.6203 34.7323 70.4687C34.0821 71.4297 33.446 72.401 32.8203 73.3792C32.879 73.4777 32.9314 73.5786 32.9618 73.6897C33.1166 74.2613 32.511 74.7354 31.9577 74.7492C31.8233 74.9653 31.6842 75.179 31.5507 75.3962C32.1 77.1146 33.3662 78.6026 35.0014 79.3711C33.9114 80.2303 32.5087 80.6818 31.1227 80.6218C30.5522 81.2444 31.9029 82.2931 31.4094 82.9777C31.2483 83.2015 30.9504 83.2678 30.7044 83.3949C29.881 83.8217 29.694 84.9849 30.057 85.8377C30.3676 86.5676 30.9639 87.1177 31.5823 87.6215ZM34.798 77.5193C34.4481 77.5027 34.198 77.8382 34.0143 78.1363C33.6798 77.829 33.0736 77.1275 33.1041 76.6303C33.1184 76.3976 33.9627 75.5359 34.1945 75.5823C34.156 75.5749 34.1488 75.6345 34.1616 75.6718C34.4432 76.5155 35.2049 77.0911 35.9263 77.612C35.8472 77.8048 35.5726 77.822 35.3786 77.7448C35.1836 77.6675 35.0059 77.5295 34.798 77.5193Z" fill="#008738"/>
<path d="M110.475 180.858C108.57 180.878 107.068 180.519 105.968 179.782C104.89 179.044 104.13 178.035 103.688 176.756C103.247 175.455 103.017 173.959 102.999 172.268L102.9 162.989C102.881 161.213 103.078 159.669 103.493 158.359C103.907 157.049 104.645 156.035 105.708 155.317C106.792 154.6 108.286 154.23 110.191 154.21C111.989 154.191 113.394 154.486 114.407 155.096C115.441 155.685 116.178 156.544 116.618 157.674C117.058 158.804 117.286 160.118 117.302 161.616L117.325 163.799L112.766 163.848L112.742 161.6C112.735 160.872 112.685 160.209 112.593 159.611C112.522 159.012 112.314 158.544 111.968 158.205C111.643 157.844 111.074 157.669 110.26 157.677C109.447 157.686 108.85 157.885 108.469 158.274C108.109 158.642 107.879 159.147 107.778 159.791C107.678 160.413 107.632 161.119 107.64 161.911L107.761 173.212C107.771 174.154 107.854 174.935 108.01 175.554C108.167 176.151 108.439 176.609 108.828 176.926C109.238 177.221 109.785 177.365 110.47 177.358C111.262 177.349 111.816 177.161 112.134 176.794C112.472 176.405 112.681 175.9 112.76 175.278C112.839 174.657 112.874 173.961 112.866 173.19L112.841 170.847L117.4 170.798L117.422 172.885C117.438 174.426 117.25 175.798 116.856 177.001C116.462 178.182 115.755 179.121 114.734 179.817C113.736 180.491 112.316 180.838 110.475 180.858ZM126.143 180.627C124.795 180.641 123.679 180.407 122.796 179.924C121.913 179.419 121.242 178.688 120.782 177.73C120.344 176.771 120.117 175.607 120.103 174.237L120.036 168.009C120.022 166.639 120.223 165.47 120.641 164.502C121.08 163.534 121.736 162.799 122.609 162.298C123.481 161.775 124.591 161.506 125.939 161.492C127.288 161.477 128.403 161.722 129.286 162.227C130.191 162.709 130.862 163.43 131.3 164.389C131.76 165.347 131.997 166.511 132.012 167.881L132.078 174.109C132.093 175.479 131.88 176.648 131.441 177.616C131.023 178.584 130.368 179.329 129.474 179.853C128.602 180.354 127.492 180.612 126.143 180.627ZM126.143 177.608C126.635 177.603 126.998 177.46 127.23 177.179C127.463 176.899 127.609 176.522 127.668 176.051C127.727 175.558 127.753 175.022 127.747 174.445L127.674 167.638C127.668 167.06 127.631 166.536 127.561 166.066C127.492 165.596 127.338 165.223 127.1 164.947C126.861 164.65 126.496 164.504 126.004 164.509C125.511 164.515 125.149 164.668 124.917 164.97C124.684 165.251 124.528 165.627 124.447 166.099C124.388 166.571 124.361 167.096 124.368 167.673L124.44 174.48C124.446 175.058 124.484 175.592 124.553 176.084C124.644 176.554 124.809 176.927 125.047 177.203C125.285 177.478 125.651 177.614 126.143 177.608ZM138.121 180.499C137.393 180.507 136.792 180.331 136.317 179.972C135.842 179.592 135.494 179.093 135.274 178.474C135.053 177.835 134.939 177.161 134.931 176.455L134.774 161.687L139.14 161.64L139.289 175.606C139.295 176.163 139.385 176.6 139.56 176.92C139.756 177.217 140.1 177.363 140.592 177.358C140.913 177.355 141.233 177.266 141.552 177.091C141.893 176.916 142.223 176.709 142.541 176.47L142.383 161.606L146.749 161.559L146.947 180.116L142.58 180.163L142.562 178.397C141.947 179.003 141.268 179.502 140.523 179.895C139.778 180.289 138.977 180.49 138.121 180.499ZM150.403 180.079L150.206 161.522L154.572 161.476L154.602 164.333C155.233 163.235 155.867 162.447 156.504 161.969C157.141 161.47 157.844 161.216 158.615 161.208C158.743 161.207 158.85 161.216 158.936 161.237C159.043 161.236 159.161 161.245 159.29 161.265L159.338 165.792C159.08 165.688 158.79 165.605 158.468 165.544C158.168 165.462 157.857 165.422 157.536 165.426C156.958 165.432 156.435 165.577 155.967 165.86C155.499 166.143 155.055 166.608 154.633 167.255L154.77 180.033L150.403 180.079ZM166.669 180.195C165.106 180.212 163.818 179.808 162.803 178.984C161.788 178.16 161.058 176.948 160.613 175.347L163.842 174.06C164.11 175.063 164.46 175.83 164.894 176.361C165.328 176.891 165.887 177.153 166.572 177.146C167.086 177.14 167.47 177.008 167.724 176.748C167.978 176.489 168.103 176.134 168.098 175.685C168.092 175.171 167.927 174.712 167.602 174.309C167.297 173.884 166.767 173.365 166.012 172.753L163.744 170.882C162.923 170.185 162.252 169.475 161.731 168.753C161.23 168.009 160.974 167.08 160.963 165.967C160.952 164.961 161.167 164.103 161.609 163.392C162.073 162.659 162.698 162.096 163.486 161.702C164.295 161.287 165.192 161.074 166.176 161.063C167.674 161.047 168.878 161.484 169.786 162.373C170.716 163.241 171.317 164.391 171.589 165.822L168.745 167.072C168.632 166.56 168.467 166.091 168.248 165.665C168.051 165.218 167.79 164.856 167.466 164.582C167.142 164.307 166.766 164.172 166.338 164.176C165.888 164.181 165.526 164.324 165.251 164.605C164.997 164.886 164.872 165.241 164.877 165.669C164.881 166.033 165.034 166.406 165.338 166.788C165.663 167.169 166.117 167.603 166.701 168.09L169.002 170.12C169.499 170.543 169.975 170.998 170.429 171.486C170.884 171.973 171.264 172.526 171.571 173.143C171.877 173.739 172.034 174.433 172.042 175.225C172.054 176.295 171.817 177.197 171.333 177.93C170.87 178.663 170.223 179.226 169.392 179.62C168.583 179.993 167.675 180.184 166.669 180.195ZM180.102 180.052C178.71 180.067 177.573 179.822 176.69 179.318C175.807 178.792 175.146 178.028 174.707 177.027C174.289 176.004 174.073 174.775 174.058 173.341L173.998 167.755C173.983 166.278 174.173 165.035 174.569 164.024C174.986 163.014 175.631 162.247 176.503 161.724C177.396 161.201 178.528 160.932 179.898 160.917C181.375 160.901 182.523 161.168 183.342 161.715C184.183 162.263 184.78 163.07 185.134 164.137C185.509 165.181 185.704 166.464 185.721 167.983L185.749 170.616L178.364 170.695L178.403 174.355C178.41 174.954 178.468 175.446 178.58 175.83C178.712 176.214 178.908 176.49 179.166 176.658C179.425 176.827 179.736 176.909 180.1 176.905C180.485 176.901 180.795 176.812 181.028 176.639C181.262 176.443 181.43 176.174 181.534 175.83C181.637 175.465 181.685 175.015 181.68 174.48L181.663 172.939L185.741 172.896L185.754 174.148C185.774 176.031 185.319 177.481 184.388 178.497C183.457 179.513 182.028 180.031 180.102 180.052ZM178.341 168.544L181.616 168.509L181.597 166.743C181.591 166.101 181.532 165.588 181.42 165.204C181.309 164.798 181.135 164.511 180.897 164.342C180.66 164.152 180.327 164.059 179.899 164.064C179.514 164.068 179.205 164.168 178.971 164.363C178.738 164.558 178.57 164.881 178.468 165.331C178.366 165.782 178.319 166.425 178.328 167.259L178.341 168.544Z" fill="#008738"/>
<path d="M100.051 125.8C99.0681 125.81 98.2931 125.626 97.7258 125.245C97.1695 124.865 96.7773 124.345 96.5491 123.685C96.3209 123.014 96.202 122.242 96.1924 121.37L96.1397 116.584C96.1296 115.667 96.2313 114.871 96.4447 114.195C96.6581 113.519 97.0389 112.996 97.5869 112.625C98.146 112.255 98.9169 112.064 99.8995 112.053C100.827 112.043 101.552 112.195 102.074 112.51C102.608 112.813 102.988 113.256 103.215 113.839C103.443 114.422 103.56 115.099 103.569 115.872L103.581 116.999L101.23 117.024L101.217 115.865C101.213 115.49 101.187 115.148 101.139 114.839C101.103 114.53 100.995 114.288 100.817 114.114C100.649 113.928 100.355 113.837 99.9358 113.842C99.5162 113.846 99.2081 113.949 99.0116 114.15C98.826 114.34 98.7074 114.601 98.6558 114.933C98.6041 115.253 98.5805 115.618 98.585 116.027L98.6492 121.856C98.6545 122.342 98.6976 122.745 98.7784 123.064C98.8591 123.372 98.9997 123.608 99.2003 123.772C99.4118 123.924 99.6942 123.998 100.047 123.994C100.456 123.99 100.742 123.893 100.906 123.703C101.08 123.502 101.188 123.242 101.228 122.921C101.269 122.6 101.287 122.241 101.283 121.844L101.269 120.635L103.621 120.609L103.633 121.685C103.642 122.48 103.545 123.188 103.342 123.809C103.139 124.418 102.774 124.903 102.248 125.262C101.733 125.61 101 125.789 100.051 125.8ZM108.133 125.677C107.415 125.685 106.829 125.559 106.373 125.299C105.918 125.028 105.576 124.635 105.35 124.118C105.134 123.59 105.022 122.957 105.014 122.217L104.983 119.335C104.974 118.573 105.072 117.932 105.276 117.411C105.491 116.889 105.824 116.494 106.273 116.224C106.734 115.953 107.318 115.815 108.025 115.807C108.786 115.798 109.379 115.935 109.801 116.218C110.235 116.5 110.543 116.916 110.726 117.467C110.92 118.005 111.021 118.667 111.03 119.451L111.044 120.809L107.235 120.851L107.256 122.739C107.259 123.048 107.29 123.302 107.347 123.5C107.416 123.698 107.517 123.84 107.65 123.927C107.784 124.014 107.944 124.056 108.132 124.054C108.331 124.052 108.49 124.006 108.611 123.916C108.731 123.816 108.818 123.677 108.871 123.5C108.924 123.311 108.949 123.079 108.946 122.803L108.938 122.008L111.041 121.985L111.048 122.631C111.059 123.602 110.824 124.35 110.344 124.875C109.864 125.399 109.127 125.667 108.133 125.677ZM107.223 119.741L108.912 119.723L108.902 118.812C108.899 118.48 108.868 118.216 108.811 118.018C108.753 117.808 108.663 117.66 108.541 117.573C108.418 117.475 108.247 117.428 108.026 117.43C107.827 117.432 107.668 117.484 107.547 117.584C107.427 117.685 107.34 117.852 107.288 118.084C107.235 118.317 107.211 118.648 107.216 119.079L107.223 119.741ZM112.674 125.478L112.569 115.906L114.821 115.881L114.837 117.355C115.162 116.788 115.489 116.382 115.818 116.135C116.146 115.877 116.509 115.747 116.907 115.742C116.973 115.741 117.028 115.746 117.073 115.757C117.128 115.756 117.189 115.761 117.255 115.771L117.281 118.107C117.147 118.053 116.998 118.01 116.832 117.979C116.677 117.937 116.517 117.916 116.351 117.918C116.053 117.921 115.783 117.996 115.542 118.142C115.3 118.289 115.071 118.528 114.854 118.862L114.927 125.454L112.674 125.478ZM121.23 125.5C120.623 125.507 120.142 125.413 119.786 125.218C119.442 125.023 119.196 124.739 119.048 124.365C118.9 123.991 118.824 123.545 118.818 123.026L118.755 117.328L117.795 117.339L117.778 115.848L118.739 115.838L118.707 112.973L120.976 112.948L121.008 115.813L122.465 115.797L122.481 117.287L121.024 117.304L121.085 122.802C121.088 123.133 121.163 123.37 121.308 123.512C121.453 123.643 121.669 123.707 121.956 123.703C122.077 123.702 122.193 123.695 122.303 123.683C122.425 123.671 122.541 123.658 122.651 123.646L122.67 125.368C122.482 125.393 122.262 125.417 122.008 125.442C121.766 125.478 121.506 125.497 121.23 125.5ZM124.393 125.349L124.305 117.35L123.278 117.362L123.261 115.788L124.287 115.777L124.281 115.164C124.274 114.557 124.34 114.043 124.479 113.621C124.618 113.2 124.863 112.877 125.214 112.653C125.565 112.428 126.049 112.312 126.667 112.305C126.833 112.304 127.004 112.313 127.181 112.333C127.358 112.342 127.54 112.357 127.728 112.377L127.746 113.966C127.668 113.956 127.585 113.946 127.497 113.936C127.409 113.926 127.326 113.921 127.248 113.922C126.994 113.925 126.808 114.004 126.688 114.16C126.579 114.305 126.527 114.565 126.531 114.941L126.54 115.752L130.73 115.706L130.835 125.279L128.599 125.303L128.511 117.304L126.557 117.325L126.645 125.325L124.393 125.349ZM128.643 114.205L128.622 112.334L130.709 112.311L130.73 114.182L128.643 114.205ZM133.046 125.254L132.958 117.255L131.931 117.266L131.913 115.693L132.94 115.682L132.933 115.069C132.927 114.462 132.993 113.947 133.132 113.526C133.271 113.105 133.516 112.782 133.867 112.557C134.217 112.333 134.702 112.217 135.32 112.21C135.486 112.208 135.657 112.218 135.834 112.238C136.011 112.247 136.193 112.261 136.381 112.281L136.399 113.871C136.321 113.861 136.238 113.851 136.15 113.841C136.061 113.831 135.979 113.826 135.901 113.827C135.647 113.83 135.46 113.909 135.341 114.065C135.232 114.21 135.18 114.47 135.184 114.845L135.193 115.657L139.383 115.611L139.488 125.183L137.252 125.208L137.164 117.209L135.21 117.23L135.298 125.23L133.046 125.254ZM137.296 114.11L137.275 112.238L139.362 112.215L139.382 114.087L137.296 114.11ZM144.151 125.281C143.411 125.289 142.814 125.158 142.358 124.887C141.913 124.605 141.583 124.205 141.367 123.689C141.163 123.161 141.057 122.538 141.049 121.82L141.017 118.939C141.009 118.199 141.101 117.568 141.294 117.047C141.498 116.526 141.825 116.125 142.275 115.844C142.725 115.563 143.314 115.418 144.042 115.41C144.727 115.403 145.286 115.507 145.719 115.723C146.163 115.928 146.487 116.25 146.69 116.69C146.894 117.118 146.999 117.664 147.006 118.326L147.015 119.121L144.895 119.144L144.886 118.3C144.882 117.969 144.852 117.709 144.795 117.522C144.748 117.324 144.664 117.187 144.542 117.111C144.419 117.024 144.259 116.982 144.06 116.984C143.861 116.986 143.702 117.043 143.581 117.155C143.461 117.255 143.374 117.422 143.322 117.654C143.28 117.887 143.262 118.207 143.266 118.616L143.305 122.127C143.312 122.745 143.382 123.164 143.517 123.383C143.652 123.592 143.863 123.694 144.15 123.691C144.371 123.689 144.536 123.637 144.645 123.537C144.766 123.436 144.841 123.291 144.873 123.103C144.914 122.904 144.934 122.667 144.931 122.39L144.92 121.364L147.04 121.34L147.05 122.251C147.057 122.892 146.958 123.439 146.753 123.894C146.559 124.349 146.243 124.695 145.804 124.932C145.375 125.157 144.825 125.274 144.151 125.281ZM150.419 125.212C149.988 125.217 149.617 125.111 149.305 124.893C148.994 124.665 148.753 124.38 148.584 124.04C148.414 123.688 148.327 123.325 148.323 122.949C148.317 122.353 148.421 121.85 148.638 121.439C148.854 121.028 149.143 120.682 149.504 120.402C149.866 120.122 150.277 119.88 150.739 119.676C151.2 119.462 151.667 119.269 152.14 119.098L152.131 118.27C152.128 117.994 152.103 117.762 152.057 117.575C152.022 117.388 151.949 117.245 151.837 117.147C151.737 117.048 151.576 117 151.355 117.003C151.167 117.005 151.013 117.051 150.893 117.14C150.783 117.23 150.702 117.358 150.649 117.524C150.606 117.679 150.581 117.862 150.572 118.072L150.545 118.652L148.408 118.592C148.429 117.488 148.69 116.673 149.192 116.149C149.706 115.613 150.487 115.34 151.535 115.328C152.496 115.317 153.195 115.575 153.631 116.1C154.078 116.625 154.307 117.34 154.317 118.246L154.366 122.668C154.37 123.021 154.379 123.341 154.393 123.628C154.418 123.915 154.443 124.174 154.468 124.406C154.503 124.637 154.533 124.841 154.557 125.018L152.537 125.04C152.501 124.819 152.454 124.571 152.396 124.296C152.349 124.009 152.313 123.8 152.29 123.668C152.184 124.055 151.978 124.411 151.672 124.735C151.366 125.047 150.949 125.206 150.419 125.212ZM151.228 123.53C151.372 123.529 151.504 123.494 151.625 123.427C151.756 123.348 151.871 123.258 151.969 123.158C152.068 123.057 152.139 122.968 152.182 122.89L152.153 120.224C151.911 120.37 151.681 120.516 151.462 120.662C151.253 120.808 151.068 120.97 150.904 121.149C150.751 121.316 150.632 121.5 150.546 121.699C150.47 121.899 150.434 122.131 150.437 122.396C150.441 122.749 150.51 123.03 150.645 123.239C150.791 123.436 150.985 123.533 151.228 123.53ZM158.737 125.088C158.129 125.094 157.648 125 157.292 124.805C156.948 124.61 156.702 124.326 156.554 123.952C156.407 123.578 156.33 123.132 156.324 122.613L156.261 116.916L155.301 116.926L155.284 115.436L156.245 115.425L156.213 112.56L158.482 112.535L158.514 115.4L159.971 115.384L159.988 116.875L158.53 116.891L158.591 122.389C158.595 122.72 158.669 122.957 158.814 123.099C158.959 123.23 159.175 123.294 159.462 123.291C159.584 123.289 159.699 123.283 159.81 123.27C159.931 123.258 160.047 123.246 160.157 123.233L160.176 124.956C159.989 124.98 159.768 125.004 159.514 125.029C159.272 125.065 159.013 125.084 158.737 125.088ZM161.535 124.941L161.429 115.368L163.682 115.343L163.787 124.916L161.535 124.941ZM161.413 113.844L161.392 111.973L163.644 111.948L163.665 113.82L161.413 113.844ZM168.476 125.013C167.781 125.021 167.205 124.9 166.75 124.652C166.294 124.392 165.948 124.014 165.71 123.52C165.484 123.026 165.367 122.425 165.359 121.718L165.324 118.506C165.316 117.799 165.42 117.196 165.635 116.697C165.862 116.197 166.2 115.818 166.65 115.559C167.1 115.289 167.672 115.15 168.368 115.143C169.063 115.135 169.639 115.261 170.095 115.521C170.561 115.77 170.908 116.142 171.134 116.636C171.371 117.13 171.494 117.731 171.501 118.438L171.537 121.651C171.545 122.357 171.435 122.96 171.209 123.46C170.994 123.959 170.655 124.344 170.195 124.614C169.745 124.873 169.172 125.006 168.476 125.013ZM168.476 123.457C168.73 123.454 168.917 123.38 169.037 123.235C169.156 123.09 169.232 122.896 169.262 122.653C169.292 122.398 169.306 122.122 169.303 121.824L169.264 118.313C169.261 118.015 169.241 117.745 169.205 117.502C169.17 117.26 169.09 117.067 168.967 116.925C168.844 116.772 168.655 116.697 168.401 116.699C168.148 116.702 167.961 116.781 167.841 116.937C167.721 117.082 167.64 117.276 167.599 117.52C167.568 117.763 167.555 118.034 167.558 118.332L167.597 121.843C167.6 122.141 167.62 122.417 167.656 122.67C167.702 122.913 167.787 123.105 167.91 123.247C168.033 123.39 168.222 123.459 168.476 123.457ZM173.113 124.813L173.008 115.241L175.26 115.216L175.271 116.177C175.61 115.842 175.966 115.573 176.339 115.37C176.723 115.156 177.136 115.046 177.577 115.041C177.975 115.037 178.291 115.133 178.525 115.329C178.759 115.514 178.933 115.766 179.046 116.085C179.16 116.404 179.219 116.751 179.224 117.127L179.307 124.745L177.055 124.77L176.976 117.599C176.973 117.312 176.926 117.091 176.836 116.938C176.746 116.784 176.574 116.709 176.32 116.712C176.166 116.713 175.995 116.759 175.808 116.85C175.633 116.94 175.457 117.052 175.282 117.187L175.366 124.789L173.113 124.813ZM183.559 124.848C182.753 124.856 182.088 124.648 181.565 124.223C181.041 123.799 180.664 123.173 180.434 122.348L182.1 121.683C182.238 122.201 182.419 122.596 182.643 122.87C182.867 123.144 183.156 123.278 183.509 123.275C183.774 123.272 183.972 123.203 184.103 123.069C184.234 122.935 184.298 122.752 184.296 122.52C184.293 122.256 184.207 122.019 184.039 121.811C183.882 121.592 183.609 121.324 183.219 121.008L182.049 120.044C181.625 119.684 181.279 119.318 181.01 118.946C180.752 118.562 180.619 118.083 180.613 117.509C180.607 116.99 180.718 116.547 180.946 116.18C181.185 115.802 181.508 115.512 181.914 115.308C182.331 115.094 182.794 114.984 183.302 114.978C184.074 114.97 184.695 115.195 185.164 115.654C185.644 116.101 185.954 116.694 186.095 117.432L184.628 118.078C184.57 117.813 184.484 117.571 184.371 117.352C184.269 117.121 184.135 116.935 183.968 116.793C183.8 116.651 183.606 116.582 183.386 116.584C183.154 116.587 182.967 116.661 182.825 116.806C182.694 116.951 182.63 117.134 182.632 117.354C182.634 117.542 182.714 117.734 182.87 117.931C183.038 118.128 183.272 118.352 183.573 118.603L184.761 119.65C185.017 119.868 185.263 120.103 185.497 120.354C185.732 120.605 185.929 120.89 186.087 121.209C186.245 121.516 186.326 121.874 186.33 122.283C186.336 122.835 186.215 123.3 185.965 123.678C185.726 124.056 185.392 124.347 184.964 124.55C184.546 124.743 184.078 124.842 183.559 124.848Z" fill="#008738"/>
<path d="M102.516 231.322L102.383 218.154C102.31 218.266 102.163 218.378 101.942 218.492C101.721 218.605 101.476 218.706 101.205 218.795C100.947 218.884 100.708 218.966 100.487 219.043C100.278 219.106 100.142 219.145 100.081 219.158L100.07 218.067C100.242 218.016 100.445 217.94 100.678 217.839C100.911 217.738 101.144 217.618 101.377 217.48C101.61 217.33 101.836 217.161 102.056 216.974C102.289 216.787 102.484 216.575 102.642 216.339L103.733 216.328L103.884 231.308L102.516 231.322ZM110.973 231.422C110.085 231.431 109.38 231.247 108.859 230.87C108.337 230.493 107.962 229.972 107.733 229.309C107.504 228.645 107.386 227.888 107.377 227.037L107.312 220.527C107.303 219.664 107.406 218.905 107.621 218.249C107.849 217.581 108.22 217.06 108.734 216.684C109.26 216.309 109.955 216.117 110.818 216.109C111.706 216.1 112.41 216.277 112.932 216.642C113.466 217.007 113.847 217.521 114.076 218.184C114.317 218.835 114.441 219.592 114.45 220.455L114.516 226.965C114.525 227.828 114.415 228.594 114.188 229.262C113.972 229.93 113.608 230.458 113.094 230.845C112.58 231.22 111.873 231.413 110.973 231.422ZM110.962 230.349C111.541 230.343 111.984 230.191 112.289 229.892C112.607 229.592 112.825 229.202 112.943 228.72C113.074 228.225 113.136 227.682 113.13 227.09L113.062 220.377C113.056 219.773 112.983 219.231 112.842 218.752C112.714 218.26 112.494 217.873 112.183 217.593C111.872 217.312 111.421 217.175 110.829 217.181C110.262 217.187 109.819 217.333 109.502 217.62C109.196 217.907 108.978 218.297 108.848 218.792C108.729 219.274 108.673 219.817 108.679 220.421L108.747 227.135C108.753 227.726 108.82 228.268 108.948 228.76C109.089 229.24 109.321 229.626 109.644 229.918C109.968 230.211 110.407 230.355 110.962 230.349ZM116.493 225.688L116.482 224.615L120.403 224.575L120.414 225.648L116.493 225.688ZM126.017 231.27C125.129 231.279 124.425 231.095 123.903 230.718C123.381 230.341 123.006 229.82 122.778 229.157C122.549 228.493 122.43 227.736 122.422 226.885L122.356 220.376C122.347 219.513 122.451 218.753 122.666 218.097C122.893 217.429 123.264 216.908 123.778 216.533C124.305 216.157 125 215.965 125.863 215.957C126.75 215.948 127.455 216.126 127.976 216.49C128.51 216.855 128.892 217.369 129.12 218.032C129.361 218.683 129.486 219.44 129.495 220.304L129.56 226.813C129.569 227.676 129.46 228.442 129.232 229.11C129.017 229.778 128.652 230.306 128.138 230.693C127.624 231.069 126.917 231.261 126.017 231.27ZM126.006 230.197C126.586 230.191 127.028 230.039 127.333 229.74C127.651 229.441 127.869 229.05 127.987 228.568C128.118 228.073 128.18 227.53 128.174 226.938L128.107 220.225C128.101 219.621 128.027 219.079 127.887 218.6C127.759 218.108 127.539 217.722 127.228 217.441C126.917 217.161 126.465 217.023 125.873 217.029C125.306 217.035 124.864 217.181 124.546 217.468C124.241 217.755 124.023 218.145 123.892 218.64C123.774 219.122 123.717 219.665 123.724 220.269L123.791 226.983C123.797 227.574 123.864 228.116 123.993 228.608C124.133 229.088 124.365 229.474 124.689 229.766C125.012 230.059 125.451 230.203 126.006 230.197ZM135.479 231.174C134.653 231.183 133.985 231.004 133.476 230.64C132.966 230.262 132.591 229.724 132.35 229.023C132.108 228.311 131.983 227.473 131.973 226.512L131.913 220.538C131.903 219.613 132.006 218.805 132.221 218.112C132.436 217.407 132.794 216.861 133.296 216.473C133.797 216.074 134.467 215.87 135.306 215.861C136.058 215.854 136.682 215.977 137.177 216.231C137.673 216.485 138.047 216.869 138.299 217.385C138.563 217.888 138.699 218.521 138.706 219.286C138.707 219.31 138.707 219.366 138.708 219.452C138.721 219.526 138.728 219.575 138.728 219.6L137.378 219.614C137.368 218.652 137.207 217.969 136.895 217.565C136.595 217.162 136.087 216.963 135.372 216.97C134.953 216.975 134.584 217.083 134.266 217.296C133.947 217.497 133.698 217.832 133.518 218.302C133.337 218.773 133.251 219.409 133.259 220.21L133.288 223.04C133.508 222.828 133.826 222.627 134.244 222.438C134.673 222.249 135.153 222.151 135.684 222.146C136.51 222.138 137.158 222.285 137.63 222.589C138.102 222.892 138.439 223.37 138.643 224.021C138.847 224.673 138.954 225.523 138.965 226.571C138.974 227.483 138.865 228.285 138.638 228.978C138.411 229.671 138.04 230.211 137.526 230.599C137.024 230.974 136.342 231.165 135.479 231.174ZM135.467 230.046C135.961 230.041 136.36 229.932 136.666 229.72C136.985 229.494 137.222 229.147 137.377 228.677C137.533 228.206 137.607 227.595 137.599 226.843C137.591 226.03 137.535 225.352 137.431 224.81C137.339 224.269 137.137 223.864 136.826 223.596C136.528 223.328 136.052 223.197 135.398 223.203C135.102 223.206 134.819 223.258 134.549 223.36C134.279 223.449 134.033 223.562 133.813 223.7C133.592 223.826 133.421 223.951 133.299 224.075L133.325 226.664C133.333 227.466 133.413 228.119 133.566 228.623C133.719 229.114 133.951 229.476 134.262 229.707C134.585 229.938 134.986 230.051 135.467 230.046ZM140.767 225.443L140.756 224.37L144.677 224.33L144.687 225.403L140.767 225.443ZM146.423 230.879L146.413 229.88L150.383 223.662C150.674 223.203 150.947 222.763 151.202 222.341C151.456 221.907 151.661 221.455 151.817 220.984C151.985 220.514 152.066 219.983 152.06 219.391C152.052 218.59 151.879 217.963 151.541 217.51C151.216 217.057 150.714 216.834 150.036 216.841C149.432 216.847 148.965 216.987 148.635 217.262C148.305 217.537 148.074 217.915 147.944 218.397C147.825 218.867 147.769 219.398 147.775 219.99L147.778 220.322L146.428 220.336L146.424 219.966C146.415 219.041 146.53 218.27 146.771 217.651C147.011 217.019 147.388 216.541 147.903 216.215C148.43 215.889 149.119 215.722 149.97 215.713C151.104 215.702 151.958 216.032 152.532 216.705C153.106 217.365 153.399 218.293 153.411 219.489C153.417 220.093 153.336 220.649 153.169 221.156C153.001 221.663 152.784 222.152 152.518 222.624C152.251 223.082 151.972 223.548 151.681 224.019L148.002 229.716L153.199 229.664L153.211 230.81L146.423 230.879ZM159.267 230.934C158.379 230.943 157.674 230.759 157.153 230.382C156.631 230.005 156.256 229.485 156.027 228.821C155.798 228.158 155.68 227.401 155.671 226.55L155.605 220.04C155.597 219.177 155.7 218.418 155.915 217.762C156.143 217.094 156.514 216.572 157.028 216.197C157.554 215.822 158.249 215.63 159.112 215.621C160 215.612 160.704 215.79 161.226 216.155C161.76 216.519 162.141 217.033 162.37 217.697C162.611 218.348 162.735 219.105 162.744 219.968L162.81 226.478C162.819 227.341 162.709 228.106 162.482 228.775C162.266 229.443 161.902 229.97 161.388 230.358C160.874 230.733 160.167 230.925 159.267 230.934ZM159.256 229.861C159.835 229.856 160.278 229.703 160.583 229.404C160.9 229.105 161.118 228.714 161.237 228.232C161.368 227.738 161.43 227.195 161.424 226.603L161.356 219.889C161.35 219.285 161.277 218.743 161.136 218.264C161.008 217.772 160.788 217.386 160.477 217.105C160.166 216.825 159.715 216.688 159.123 216.694C158.556 216.699 158.113 216.846 157.796 217.132C157.49 217.419 157.272 217.81 157.142 218.304C157.023 218.786 156.967 219.33 156.973 219.934L157.041 226.647C157.047 227.239 157.114 227.781 157.242 228.273C157.383 228.752 157.615 229.138 157.938 229.431C158.262 229.723 158.701 229.867 159.256 229.861ZM164.954 230.692L164.943 229.693L168.913 223.475C169.204 223.016 169.477 222.576 169.732 222.154C169.986 221.72 170.191 221.268 170.347 220.797C170.515 220.327 170.596 219.796 170.59 219.204C170.582 218.403 170.409 217.776 170.071 217.323C169.746 216.87 169.245 216.647 168.567 216.654C167.962 216.66 167.495 216.8 167.165 217.075C166.835 217.349 166.604 217.728 166.474 218.21C166.355 218.68 166.299 219.211 166.305 219.802L166.308 220.135L164.958 220.149L164.954 219.779C164.945 218.854 165.061 218.083 165.301 217.464C165.541 216.832 165.919 216.354 166.433 216.028C166.96 215.702 167.649 215.535 168.5 215.526C169.634 215.515 170.488 215.845 171.062 216.518C171.636 217.178 171.929 218.106 171.941 219.302C171.947 219.906 171.866 220.461 171.699 220.969C171.531 221.476 171.314 221.965 171.048 222.436C170.781 222.895 170.502 223.361 170.211 223.832L166.532 229.529L171.729 229.477L171.741 230.623L164.954 230.692ZM178.461 230.555L178.416 226.172L173.904 226.218L173.89 224.849L178.051 215.578L179.641 215.562L179.736 224.938L181.456 224.921L181.468 226.141L179.748 226.159L179.792 230.542L178.461 230.555ZM175.26 224.983L178.404 224.952L178.328 217.369L175.26 224.983Z" fill="#008738"/>
<path d="M71.6575 171.318L71.3655 171.564L71.5262 171.911L74.426 178.163L68.5736 174.524L68.2493 174.323L67.9694 174.583L62.9205 179.272L64.5717 172.582L64.6633 172.212L64.3296 172.026L58.3094 168.673L65.1824 168.176L65.5634 168.149L65.637 167.774L66.965 161.013L69.5608 167.395L69.7047 167.749L70.0839 167.703L76.9252 166.877L71.6575 171.318Z" stroke="#FFBB00"/>
<path d="M223.477 168.539L223.185 168.786L223.346 169.132L226.245 175.384L220.393 171.746L220.069 171.544L219.789 171.804L214.74 176.493L216.391 169.804L216.483 169.433L216.149 169.247L210.129 165.895L217.002 165.398L217.383 165.37L217.456 164.995L218.784 158.234L221.38 164.617L221.524 164.97L221.903 164.925L228.744 164.099L223.477 168.539Z" stroke="#FFBB00"/>
</svg>
