<?xml version="1.0" encoding="UTF-8"?>
<svg id="Layer_1" xmlns="http://www.w3.org/2000/svg" viewBox="0 0 375.6 495.5">
  <defs>
    <style>
      .cls-1 {
        fill: #008738;
      }

      .cls-2 {
        fill: #fb0;
      }
    </style>
  </defs>
  <path class="cls-1" d="M6.8,278.1c-16.4,15.4.8,58,10.8,82.7,6.9,17.2,18,39.5,37.9,65.5,6.8,8.9,50.7,64.4,126.5,68.9,89,5.3,143.4-64.3,148.1-70.6,10.5-11.8,25.5-31.5,36.2-59.4,3.7-9.7,6.4-19,8.3-27.5,3.7-16.6-3.5-33.7-17.3-42.9l-44.8-24.9c-5.6-3.1-12.6-1.8-16.7,3.1l-36.4,43.7c-5.4,6.4-15.2,6.4-20.5,0l-48.4-58.7c-6.3-7.6-17.7-8.1-24.6-1.1l-46.1,46.5c-2.3,2.4-6.1,2.3-8.4,0l-19.2-19.6c-3.4-3.4-9.4-8.4-18-11.2-8.2-2.7-15.1-2.2-21.1-1.7-28.2,2.5-42.2,3.8-46.2,7.5Z"/>
  <rect class="cls-2" x="173.8" y="187.3" width="36" height="14.9"/>
  <path class="cls-2" d="M222.3,24.7c14.8,4.4,27.6,1.8,36.5,0,31.8-6.4,49.3-27.7,53.2-23.8,2.4,2.3-4.5,9.4-8.7,26.2-1.7,6.6-4.8,19.5-1.6,32.6,3.3,13.4,10.5,16.1,16.7,27,13.3,23.4,3.7,52.5,0,63.5-3.4,10.4-14.5,43.6-46.9,56.4-15.6,6.2-30,5.2-38.1,4-9.5,3.8-20.3.8-26.2-7.1-6.2-8.3-5.3-19.5,0-26.2,7.5-9.5,24.8-11.1,37.2,0,24.8,0,49.1-14.3,56.6-37.9,1-3.1,1.7-6.3,2.2-9.8,2.8-20.9-7.1-37.4-9.5-41.3-1.2-2-21.1-32.9-56.4-31.8-18.2.6-31.6,9.3-38.9,15.5-3.3,2.8-8,2.8-11.3,0-7.5-6.4-21.3-15.5-40.2-15.9-35.5-.8-55.2,29.8-56.4,31.8-2.4,3.9-12.4,20.4-9.5,41.3.4,3.3,1.1,6.3,2,9.2,7.4,23.8,31.6,38.4,56.6,38.4,12.6-11.2,30-9.5,37.5,0,5.3,6.7,6.2,17.9,0,26.2-5.9,7.9-16.7,10.9-26.2,7.1-8.1,1.2-22.5,2.2-38.1-4-32.4-12.8-43.4-46-46.9-56.4-3.7-11-13.3-40.1,0-63.5,6.2-10.9,13.4-13.6,16.7-27,3.2-13.1,0-26-1.6-32.6-4.3-16.8-11.1-23.9-8.7-26.2,4-3.9,21.5,17.5,53.2,23.8,8.5,1.7,21.4,4.3,36.5,0,15.6-4.4,18.6-11.9,30.7-11.6,12,.2,14.5,7.6,29.5,12Z"/>
  <ellipse class="cls-1" cx="140.1" cy="132.7" rx="17.9" ry="25.6"/>
  <ellipse class="cls-1" cx="250.9" cy="137.5" rx="17.9" ry="25.6"/>
  <path class="cls-2" d="M189.9,143.3l-11.3,8.5c-2.1,1.6-2.6,4.6-1,6.8.3.4.6.7,1,1l11.3,8.5c1.7,1.3,4.1,1.3,5.8,0l11.3-8.5c2.1-1.6,2.6-4.6,1-6.8-.3-.4-.6-.7-1-1l-11.3-8.5c-1.7-1.3-4.1-1.3-5.8,0h0Z"/>
  <path class="cls-1" d="M48.2,172.1c-3.3-.3-12.6,21.2-8.3,43.5,5.5,28.2,30.6,47,33.4,45,2.1-1.5-9.9-14.7-17.6-42-7.8-27.7-4.4-46.2-7.4-46.5Z"/>
  <path class="cls-1" d="M330.9,172.1c3.3-.3,12.6,21.2,8.3,43.5-5.5,28.2-30.6,47-33.4,45-2.1-1.5,9.9-14.7,17.6-42,7.8-27.7,4.4-46.2,7.4-46.5Z"/>
  <path class="cls-1" d="M193.5,223.5c-2.9,3.2,1.6,16.6,38.9,65.4,5.9,7.7,17.6,7.6,23.2-.3,50-70.7,61.5-84.9,56.7-88-6.6-4.3-26.7,38.1-63.8,40.2-29.8,1.7-50.4-22.3-55-17.3Z"/>
  <path class="cls-1" d="M167.1,228c2.7,2.3-1.6,12-37.6,47.5-6,5.9-16,5.6-21.2-1-36.8-46.3-43.7-81.1-38.7-81.7,10.8-1.2,20.7,41.2,49.7,45.2,28.1,3.8,41.3-15.5,47.8-10Z"/>
</svg>