<?xml version="1.0" encoding="UTF-8"?>
<svg id="Layer_2" xmlns="http://www.w3.org/2000/svg" viewBox="0 0 392.83 452">
  <defs>
    <style>
      .cls-1, .cls-2 {
        fill: #008738;
      }

      .cls-3 {
        fill: #72bd00;
      }

      .cls-3, .cls-2, .cls-4 {
        fill-rule: evenodd;
      }

      .cls-4 {
        fill: #fb0;
      }
    </style>
  </defs>
  <g id="Layer_1-2" data-name="Layer_1" image-rendering="optimizeQuality" shape-rendering="geometricPrecision" text-rendering="geometricPrecision">
    <path id="_489009808" class="cls-2" d="M196.42,136.03c-2.72,0-4.94-2.21-4.94-4.93v-19.06c0-2.72,2.21-4.93,4.93-4.93,2.72,0,4.93,2.21,4.93,4.93v19.06c0,2.72-2.21,4.93-4.93,4.93h0Z"/>
    <path id="_489009712" class="cls-2" d="M261.28,153.41c-.84,0-1.69-.21-2.47-.66-2.35-1.36-3.17-4.38-1.8-6.74l9.53-16.51c1.36-2.36,4.38-3.17,6.74-1.8,2.36,1.36,3.17,4.38,1.8,6.74l-9.53,16.51c-.92,1.58-2.57,2.47-4.28,2.47h0Z"/>
    <path id="_489010192" class="cls-2" d="M345.21,265.77h-19.06c-2.72,0-4.94-2.21-4.94-4.93s2.21-4.93,4.93-4.93h19.06c2.72,0,4.93,2.21,4.93,4.93,0,2.72-2.21,4.94-4.93,4.93Z"/>
    <path id="_489009664" class="cls-2" d="M325.27,340.17c-.83,0-1.69-.21-2.46-.66l-16.51-9.53c-2.37-1.36-3.17-4.38-1.81-6.74,1.37-2.36,4.38-3.17,6.74-1.81l16.51,9.53c2.35,1.36,3.16,4.38,1.81,6.74-.92,1.58-2.58,2.47-4.29,2.47h0Z"/>
    <path id="_489009856" class="cls-2" d="M270.82,394.63c-1.7,0-3.36-.88-4.28-2.47l-9.53-16.51c-1.37-2.36-.56-5.38,1.8-6.74,2.37-1.36,5.39-.55,6.74,1.81l9.53,16.51c1.37,2.36.55,5.38-1.8,6.74-.78.45-1.63.66-2.47.66h0Z"/>
    <path id="_489009784" class="cls-2" d="M196.42,414.56c-2.72,0-4.94-2.2-4.94-4.93v-19.06c0-2.72,2.21-4.93,4.93-4.93,2.72,0,4.93,2.21,4.93,4.93v19.06c0,2.73-2.21,4.93-4.93,4.93h0Z"/>
    <path id="_489009472" class="cls-2" d="M122.01,394.63c-.84,0-1.69-.21-2.47-.66-2.35-1.36-3.17-4.38-1.8-6.74l9.53-16.51c1.36-2.36,4.38-3.17,6.74-1.81,2.35,1.36,3.17,4.38,1.8,6.74l-9.53,16.51c-.91,1.58-2.57,2.47-4.27,2.47h0Z"/>
    <path id="_489009064" class="cls-2" d="M67.56,340.17c-1.7,0-3.37-.88-4.29-2.47-1.36-2.36-.56-5.38,1.81-6.74l16.51-9.53c2.35-1.37,5.38-.55,6.74,1.81,1.36,2.36.56,5.38-1.81,6.74l-16.51,9.53c-.78.45-1.63.66-2.46.66Z"/>
    <path id="_489008992" class="cls-2" d="M66.68,265.77h-19.06c-2.72,0-4.93-2.21-4.93-4.93,0-2.73,2.21-4.93,4.93-4.93h19.06c2.72,0,4.93,2.21,4.93,4.93s-2.21,4.94-4.93,4.93h0Z"/>
    <path id="_489009448" class="cls-2" d="M84.05,200.9c-.83,0-1.69-.21-2.46-.66l-16.51-9.53c-2.36-1.36-3.17-4.38-1.81-6.74,1.37-2.36,4.38-3.17,6.74-1.81l16.51,9.53c2.37,1.36,3.17,4.38,1.81,6.74-.91,1.58-2.58,2.47-4.29,2.47h0Z"/>
    <path id="_489009304" class="cls-2" d="M131.55,153.41c-1.71,0-3.36-.88-4.28-2.47l-9.53-16.51c-1.37-2.36-.56-5.38,1.8-6.74,2.36-1.37,5.38-.55,6.74,1.81l9.53,16.51c1.37,2.36.56,5.38-1.8,6.74-.78.45-1.63.66-2.47.66h0Z"/>
    <path id="_489009400" class="cls-2" d="M308.77,200.9c-1.7,0-3.36-.88-4.28-2.47-1.36-2.36-.56-5.38,1.81-6.74l16.51-9.53c2.35-1.36,5.38-.55,6.74,1.81,1.36,2.36.54,5.38-1.81,6.74l-16.51,9.53c-.78.45-1.63.66-2.47.66h0Z"/>
    <path id="_489009496" class="cls-2" d="M196.42,116.97c-79.33,0-143.87,64.54-143.87,143.86s64.54,143.87,143.86,143.87c79.33,0,143.86-64.54,143.86-143.87s-64.54-143.86-143.86-143.86h0ZM196.42,414.56c-84.77,0-153.73-68.96-153.73-153.73,0-84.77,68.97-153.73,153.73-153.73,84.77,0,153.73,68.96,153.73,153.73,0,84.77-68.97,153.73-153.73,153.73Z"/>
    <path id="_489009544" class="cls-3" d="M217.17,80.68c-2.72,0-4.94-2.21-4.94-4.93v-32.96h-31.64v32.96c0,2.73-2.21,4.94-4.94,4.94-2.72,0-4.93-2.21-4.93-4.93v-37.9c0-2.72,2.21-4.93,4.93-4.93h41.51c2.72,0,4.93,2.21,4.93,4.93v37.9c0,2.73-2.21,4.94-4.93,4.93h0Z"/>
    <path id="_489009256" class="cls-4" d="M155.95,32.92h80.94l15.05-23.05h-111.04l15.05,23.05ZM239.56,42.78h-86.29c-1.67,0-3.22-.84-4.13-2.24L127.64,7.63c-1-1.52-1.07-3.45-.21-5.05.85-1.59,2.53-2.59,4.34-2.59h129.28c1.81,0,3.47.99,4.34,2.59.86,1.59.78,3.53-.2,5.05l-21.49,32.92c-.91,1.39-2.47,2.24-4.13,2.24h0Z"/>
    <path id="_489008656" class="cls-3" d="M55.74,143.74c-1.26,0-2.53-.48-3.5-1.45l-16.28-16.29c-.93-.93-1.45-2.18-1.45-3.49,0-1.31.52-2.56,1.45-3.49l18.65-18.65c1.93-1.93,5.05-1.93,6.98,0l16.3,16.29c1.92,1.93,1.92,5.05,0,6.98-1.93,1.93-5.06,1.93-6.98,0l-12.81-12.8-11.67,11.67,12.8,12.8c1.92,1.93,1.92,5.05,0,6.98-.97.96-2.23,1.45-3.48,1.45h0Z"/>
    <path id="_489008344" class="cls-4" d="M14.87,124.49l12.92,2.71,34.99-35-2.72-12.92L14.87,124.49ZM29.38,137.51c-.33,0-.67-.03-1.01-.1l-24.45-5.13c-1.77-.37-3.2-1.68-3.71-3.42-.52-1.74-.04-3.62,1.23-4.9l58.1-58.09c1.27-1.28,3.15-1.75,4.89-1.24,1.74.52,3.05,1.94,3.42,3.71l5.13,24.45c.34,1.63-.16,3.32-1.34,4.5l-38.77,38.77c-.94.94-2.2,1.45-3.49,1.45h0Z"/>
    <path id="_489008536" class="cls-3" d="M337.09,143.74c-1.27,0-2.52-.48-3.49-1.45-1.93-1.93-1.93-5.05,0-6.98l12.8-12.8-11.68-11.67-12.8,12.8c-1.92,1.93-5.05,1.93-6.98,0-1.92-1.93-1.92-5.05,0-6.98l16.29-16.29c.93-.93,2.18-1.44,3.48-1.44h0c1.32,0,2.57.52,3.49,1.45l18.65,18.65c1.93,1.93,1.93,5.05,0,6.98l-16.28,16.29c-.97.96-2.23,1.45-3.49,1.45h0Z"/>
    <path id="_489008464" class="cls-4" d="M330.05,92.2l34.99,35,12.92-2.71-45.21-45.2-2.7,12.91ZM363.45,137.51c-1.3,0-2.56-.51-3.5-1.44l-38.77-38.77c-1.17-1.18-1.68-2.87-1.34-4.5l5.13-24.45c.37-1.77,1.68-3.2,3.42-3.72,1.74-.52,3.62-.04,4.89,1.24l58.1,58.09c1.27,1.28,1.75,3.16,1.23,4.9-.51,1.74-1.94,3.05-3.71,3.42l-24.45,5.13c-.34.07-.68.11-1.01.11h0Z"/>
    <g>
      <path class="cls-1" d="M182.89,283.14c1.28,0,2.3.36,3.05,1.08.75.72,1.13,1.67,1.13,2.86v7.1h-47.62v-3.94c0-.8.17-1.64.5-2.52s.87-1.67,1.61-2.38l21.07-21.12c1.76-1.79,3.34-3.5,4.73-5.14,1.39-1.63,2.55-3.25,3.48-4.85.93-1.6,1.64-3.22,2.14-4.87.5-1.65.74-3.38.74-5.21,0-1.66-.24-3.13-.72-4.39-.48-1.26-1.16-2.33-2.04-3.19-.88-.86-1.94-1.51-3.17-1.94-1.23-.43-2.62-.65-4.15-.65-1.41,0-2.71.2-3.91.6-1.2.4-2.26.96-3.19,1.68-.93.72-1.71,1.56-2.35,2.52-.64.96-1.12,2.02-1.44,3.17-.54,1.47-1.25,2.45-2.11,2.93-.86.48-2.11.59-3.74.34l-6.24-1.1c.48-3.33,1.41-6.25,2.78-8.76,1.38-2.51,3.1-4.61,5.16-6.29,2.06-1.68,4.43-2.94,7.1-3.79,2.67-.85,5.54-1.27,8.62-1.27s6.13.47,8.78,1.42c2.66.94,4.93,2.28,6.82,4.01,1.89,1.73,3.36,3.81,4.42,6.24,1.06,2.43,1.58,5.14,1.58,8.11,0,2.56-.38,4.93-1.13,7.1-.75,2.18-1.76,4.26-3.02,6.24-1.26,1.99-2.74,3.91-4.44,5.76-1.7,1.86-3.47,3.74-5.33,5.66l-15.65,15.98c1.5-.45,3-.79,4.49-1.03,1.49-.24,2.9-.36,4.25-.36h17.81Z"/>
      <path class="cls-1" d="M244.71,268.02v6.86c0,.64-.21,1.19-.62,1.66-.42.46-1.01.7-1.78.7h-6.34v16.94h-10.32v-16.94h-29.28c-.8,0-1.5-.25-2.11-.74-.61-.5-.99-1.11-1.15-1.85l-1.25-6,32.88-43.92h11.23v43.3h8.74ZM225.66,268.02v-22.7c0-2.14.14-4.51.43-7.1l-21.55,29.81h21.12Z"/>
    </g>
    <path id="_489009352" class="cls-2" d="M196.42,79.54c-99.97,0-181.3,81.33-181.3,181.3,0,99.97,81.33,181.3,181.3,181.3,99.97,0,181.29-81.33,181.29-181.3,0-99.97-81.32-181.29-181.29-181.3h0ZM196.42,452c-105.41,0-191.17-85.76-191.17-191.17,0-105.41,85.76-191.16,191.17-191.16,105.41,0,191.16,85.76,191.16,191.16s-85.75,191.17-191.16,191.17Z"/>
  </g>
</svg>